<svg xmlns="http://www.w3.org/2000/svg" width="24" height="24" fill="currentColor" viewBox="0 0 24 24">
  <path fill-rule="evenodd" d="M5.525 1.25h.92a.75.75 0 0 1 0 1.5h-.89c-.634 0-1.065 0-1.398.028-.324.026-.489.074-.603.132a1.472 1.472 0 0 0-.644.644c-.058.114-.106.279-.132.603-.027.333-.028.764-.028 1.399v.888a.75.75 0 0 1-1.5 0v-.92c0-.595 0-1.088.033-1.49.034-.416.107-.8.291-1.161.285-.56.74-1.014 1.299-1.3.36-.183.745-.256 1.162-.29.401-.033.894-.033 1.49-.033Zm14.318 1.528c-.333-.027-.764-.028-1.399-.028h-.888a.75.75 0 1 1 0-1.5h.92c.595 0 1.088 0 1.49.033.416.034.8.107 1.161.291.56.285 1.014.74 1.3 1.299.183.36.256.745.29 1.162.033.401.033.894.033 1.49v.92a.75.75 0 0 1-1.5 0v-.89c0-.634 0-1.065-.028-1.398-.026-.324-.074-.489-.133-.603a1.472 1.472 0 0 0-.643-.644c-.114-.058-.279-.106-.603-.132ZM2 16.806a.75.75 0 0 1 .75.75v.888c0 .635 0 1.066.028 1.399.026.324.074.489.132.603.142.277.367.502.644.643.114.059.279.107.603.133.333.027.764.028 1.399.028h.888a.75.75 0 0 1 0 1.5h-.92c-.595 0-1.088 0-1.49-.033-.416-.034-.8-.107-1.161-.29a2.972 2.972 0 0 1-1.3-1.3c-.183-.36-.256-.745-.29-1.162-.033-.401-.033-.894-.033-1.49v-.92a.75.75 0 0 1 .75-.75Zm20 0a.75.75 0 0 1 .75.75v.92c0 .595 0 1.088-.033 1.49-.034.416-.107.8-.29 1.161a2.973 2.973 0 0 1-1.3 1.3c-.36.183-.745.256-1.162.29-.401.033-.894.033-1.49.033h-.92a.75.75 0 1 1 0-1.5h.89c.634 0 1.065 0 1.398-.028.324-.026.489-.074.603-.133.277-.14.502-.366.643-.643.059-.114.107-.279.133-.603.027-.333.028-.764.028-1.399v-.888a.75.75 0 0 1 .75-.75ZM11.716 4.792a1.43 1.43 0 0 1 .568 0c.217.044.411.152.555.232l.04.022 4.934 2.711.042.024c.152.082.358.194.517.365.137.147.242.322.306.514.074.222.073.457.072.629v5.449c0 .172.002.407-.072.63a1.409 1.409 0 0 1-.306.513c-.159.17-.365.283-.517.366l-.042.023-4.934 2.711-.04.022c-.144.08-.338.188-.555.232a1.43 1.43 0 0 1-.568 0 1.975 1.975 0 0 1-.555-.232l-.04-.022-4.934-2.711-.042-.023c-.152-.083-.358-.195-.517-.366a1.408 1.408 0 0 1-.306-.514c-.074-.222-.073-.457-.072-.629V9.29c0-.172-.002-.407.072-.63.064-.19.168-.366.306-.513.159-.17.365-.283.517-.366l.042-.023 4.934-2.711.04-.022c.144-.08.338-.188.555-.232ZM12 6.276a2.66 2.66 0 0 0-.157.085L7.557 8.716 12 11.158l4.443-2.442-4.286-2.355A12.564 12.564 0 0 0 12 6.276Zm5.25 3.708v4.847l-.001.036-.034.02-.125.068-4.34 2.385v-4.883l4.5-2.473Zm-6 2.473-4.5-2.473v4.706a12.487 12.487 0 0 0 .001.177l.034.02.125.068 4.34 2.385v-4.883Z" clip-rule="evenodd"/>
</svg>
