<svg xmlns="http://www.w3.org/2000/svg" width="24" height="24" fill="currentColor" viewBox="0 0 24 24">
  <path fill-rule="evenodd" d="M21.25 19a1.25 1.25 0 1 0-2.5 0 1.25 1.25 0 0 0 2.5 0Zm-.5-2.646a2.751 2.751 0 1 1-1.5 0 19.564 19.564 0 0 0-.038-1.463c-.038-.454-.107-.715-.207-.912a2.252 2.252 0 0 0-.983-.984c-.198-.1-.459-.17-.913-.207-.462-.037-1.057-.038-1.909-.038h-2.45v3.604a2.751 2.751 0 1 1-1.5 0V12.75H8.8c-.852 0-1.447 0-1.91.038-.453.037-.714.107-.911.207a2.25 2.25 0 0 0-.984.984c-.1.197-.17.458-.207.912-.03.377-.037.842-.038 1.463a2.751 2.751 0 1 1-1.5 0c.001-.626.008-1.148.043-1.585.045-.547.14-1.027.366-1.472a3.75 3.75 0 0 1 1.639-1.638c.444-.227.924-.321 1.47-.366.531-.043 1.187-.043 2-.043h2.482V7.646a2.751 2.751 0 1 1 1.5 0v3.604h2.482c.813 0 1.469 0 2 .043.546.045 1.026.14 1.47.366a3.75 3.75 0 0 1 1.64 1.638c.226.445.32.925.365 1.471.035.438.042.96.043 1.585ZM13.25 5a1.25 1.25 0 1 0-2.5 0 1.25 1.25 0 0 0 2.5 0Zm0 14a1.25 1.25 0 1 0-2.5 0 1.25 1.25 0 0 0 2.5 0Zm-8 0a1.25 1.25 0 1 0-2.5 0 1.25 1.25 0 0 0 2.5 0Z" clip-rule="evenodd"/>
</svg>
