<svg xmlns="http://www.w3.org/2000/svg" width="24" height="24" fill="currentColor" viewBox="0 0 24 24">
  <path fill-rule="evenodd" d="M12.216 3.37a.25.25 0 0 0-.432 0L2.518 19.376a.25.25 0 0 0 .217.375h18.53a.25.25 0 0 0 .217-.375L12.217 3.37Zm-1.73-.751c.674-1.164 2.355-1.164 3.029 0l9.265 16.004c.676 1.167-.166 2.627-1.514 2.627H2.735c-1.349 0-2.19-1.46-1.515-2.627L10.486 2.62Z" clip-rule="evenodd"/>
  <path fill-rule="evenodd" d="M12 8.25a.75.75 0 0 1 .75.75v4a.75.75 0 0 1-1.5 0V9a.75.75 0 0 1 .75-.75ZM11.25 17a.75.75 0 0 1 .75-.75h.01a.75.75 0 0 1 0 1.5H12a.75.75 0 0 1-.75-.75Z" clip-rule="evenodd"/>
</svg>
