<svg xmlns="http://www.w3.org/2000/svg" width="24" height="24" fill="currentColor" viewBox="0 0 24 24">
  <path d="M19.78 14.624c-.205 0-.362-.055-.472-.165-.11-.11-.165-.267-.165-.471V9.723c0-.205.055-.362.165-.472.11-.11.267-.165.471-.165h2.742c.157 0 .275.042.353.126.084.079.126.194.126.346 0 .157-.042.277-.126.361-.078.079-.196.118-.353.118h-2.215v1.296h2.034c.163 0 .283.042.361.126.084.078.126.196.126.353 0 .157-.042.278-.126.361-.078.079-.198.118-.36.118h-2.035v1.383h2.215c.157 0 .275.042.353.125.084.079.126.194.126.346 0 .157-.042.277-.126.361-.078.079-.196.118-.353.118h-2.742Zm-6.952.071c-.178 0-.314-.05-.409-.15-.094-.099-.141-.238-.141-.416V9.581c0-.178.05-.316.15-.416a.59.59 0 0 1 .423-.15c.157 0 .28.032.37.095.094.058.18.16.259.306l1.814 3.315h-.267l1.815-3.315a.812.812 0 0 1 .251-.306.655.655 0 0 1 .37-.094c.177 0 .313.05.408.15.1.099.149.237.149.415v4.548c0 .178-.047.317-.142.417-.094.1-.23.149-.408.149-.178 0-.317-.05-.416-.15-.095-.099-.142-.238-.142-.416v-3.18h.173l-1.46 2.615a.8.8 0 0 1-.205.228.476.476 0 0 1-.275.07.475.475 0 0 1-.283-.078.737.737 0 0 1-.196-.22l-1.477-2.624h.189v3.19c0 .177-.047.316-.142.416-.089.1-.225.149-.408.149Zm-3.618.015c-.22 0-.446-.018-.676-.055a4.355 4.355 0 0 1-.652-.14 2.635 2.635 0 0 1-.55-.237.547.547 0 0 1-.18-.832.431.431 0 0 1 .25-.157.495.495 0 0 1 .346.055c.215.12.448.21.7.267.256.057.51.086.761.086.382 0 .655-.057.817-.173.162-.12.244-.27.244-.447a.432.432 0 0 0-.173-.362c-.115-.089-.317-.165-.605-.227l-.888-.189c-.502-.105-.877-.283-1.123-.534-.24-.257-.361-.592-.361-1.006 0-.261.055-.5.165-.714.11-.215.264-.4.463-.558.2-.157.435-.278.707-.361a3.43 3.43 0 0 1 1.775-.016c.283.068.532.17.746.306a.475.475 0 0 1 .213.244.506.506 0 0 1 .039.29.431.431 0 0 1-.118.252.427.427 0 0 1-.243.141c-.1.021-.22-.002-.362-.07a2.22 2.22 0 0 0-.55-.197 2.816 2.816 0 0 0-.597-.063c-.22 0-.408.03-.565.087a.806.806 0 0 0-.354.243.586.586 0 0 0-.117.361c0 .152.055.275.164.37.11.094.302.17.574.228l.887.188c.514.11.896.288 1.147.534.252.241.377.56.377.958 0 .262-.052.5-.157.715a1.55 1.55 0 0 1-.455.542c-.2.152-.438.27-.715.354-.278.078-.59.117-.935.117Zm-7.668-.015a.602.602 0 0 1-.362-.102.464.464 0 0 1-.173-.275.628.628 0 0 1 .071-.385l2.01-4.407a.93.93 0 0 1 .3-.384.663.663 0 0 1 .4-.126.66.66 0 0 1 .4.126.88.88 0 0 1 .291.384l2.027 4.407a.645.645 0 0 1 .07.393.4.4 0 0 1-.157.275.586.586 0 0 1-.345.094c-.178 0-.317-.042-.417-.126a1.06 1.06 0 0 1-.25-.392l-.472-1.092.487.337H2.146l.487-.337-.463 1.092a1.201 1.201 0 0 1-.251.4c-.084.079-.21.118-.377.118Zm2.23-4.312-1.005 2.395-.212-.306h2.458l-.212.306-1.013-2.395h-.016Z"/>
</svg>
