<svg xmlns="http://www.w3.org/2000/svg" width="24" height="24" fill="currentColor" viewBox="0 0 24 24">
  <path fill-rule="evenodd" d="M12 2.75a1.75 1.75 0 0 0-1.587 2.492l.004.008a.546.546 0 0 0 .038.038.601.601 0 0 0 .12.066h.067c.082-.004.192-.017.394-.043a7.658 7.658 0 0 1 2.466.088A1.75 1.75 0 0 0 12 2.75Zm2.957 3.1A3.25 3.25 0 1 0 9 5.751c.027.066.069.168.131.272.073.122.159.223.257.322.114.114.251.207.364.273.113.066.262.14.417.181.34.093.675.05.983.01l.073-.01a6.157 6.157 0 0 1 2.375.163l.006.002a5.48 5.48 0 0 1 2.146 1.126c.975.845 1.498 1.967 1.498 3.11a18 18 0 0 0 .028 1.007.75.75 0 1 0 1.497-.084 16.61 16.61 0 0 1-.025-.923c0-1.615-.741-3.139-2.016-4.244a6.803 6.803 0 0 0-1.777-1.106ZM2.439 3.502a.75.75 0 0 1 1.06-.063l4.31 3.832a.757.757 0 0 1 .127.113l12.387 11.01a.75.75 0 0 1 .106.095l1.07.95a.75.75 0 0 1-.997 1.122l-.912-.811h-3.915a3.751 3.751 0 0 1-7.35 0H5.841c-.648 0-1.155 0-1.516-.012a5.172 5.172 0 0 1-.485-.035 1.697 1.697 0 0 1-.226-.045.977.977 0 0 1-.317-.149 1.233 1.233 0 0 1-.36-.383 1.232 1.232 0 0 1-.147-.504.975.975 0 0 1 .042-.375 1.91 1.91 0 0 1 .086-.225 6.61 6.61 0 0 1 .25-.489c.205-.37.51-.888.907-1.557l.007-.013C4.718 14.888 5.25 13.35 5.25 11.2c0-1.166.387-2.286 1.083-3.234L2.502 4.56a.75.75 0 0 1-.063-1.06ZM7.46 8.968c-.466.68-.71 1.45-.71 2.232 0 2.412-.6 4.214-1.376 5.526-.399.675-.69 1.168-.883 1.516a63.5 63.5 0 0 0 1.367.008h12.044L7.46 8.968Zm6.662 10.782H9.878a2.25 2.25 0 0 0 4.244 0Z" clip-rule="evenodd"/>
</svg>
