<svg xmlns="http://www.w3.org/2000/svg" width="24" height="24" fill="currentColor" viewBox="0 0 24 24">
  <path fill-rule="evenodd" d="M12 2.75a1.75 1.75 0 0 0-1.502 2.649 7.633 7.633 0 0 1 3.004 0A1.75 1.75 0 0 0 12 2.75Zm2.957 3.1a3.25 3.25 0 1 0-5.914 0c-.649.278-1.25.65-1.777 1.106C5.99 8.061 5.25 9.584 5.25 11.2c0 2.151-.532 3.688-1.168 4.763l-.008.013c-.395.67-.702 1.187-.906 1.557-.102.185-.189.35-.25.489-.03.069-.062.146-.086.226a.975.975 0 0 0-.042.374c.011.113.035.308.147.504.111.196.267.316.36.383.123.09.249.13.316.15.079.021.158.034.227.044.138.018.304.028.485.035.36.012.868.012 1.515.012h2.485a3.751 3.751 0 0 0 7.35 0h2.484c.648 0 1.155 0 1.515-.012.181-.007.347-.017.485-.035.07-.01.148-.023.227-.045a.977.977 0 0 0 .317-.149c.092-.067.248-.187.36-.383.112-.196.135-.39.146-.504a.974.974 0 0 0-.041-.375 1.908 1.908 0 0 0-.086-.225 6.726 6.726 0 0 0-.25-.489c-.205-.37-.511-.888-.907-1.557l-.008-.013c-.636-1.075-1.167-2.612-1.167-4.763 0-1.615-.742-3.139-2.017-4.244a6.804 6.804 0 0 0-1.776-1.106Zm-1.373 1.108a5.478 5.478 0 0 1 2.167 1.132c.976.845 1.499 1.967 1.499 3.11 0 2.412.6 4.214 1.376 5.526.399.675.69 1.168.883 1.516-.325.008-.771.008-1.367.008H5.857c-.596 0-1.043 0-1.368-.008.193-.348.485-.841.883-1.516.777-1.312 1.377-3.114 1.377-5.526 0-1.143.523-2.265 1.498-3.11a5.478 5.478 0 0 1 2.167-1.132 6.101 6.101 0 0 1 3.17 0ZM9.878 19.75a2.251 2.251 0 0 0 4.244 0H9.878Z" clip-rule="evenodd"/>
</svg>
