<svg xmlns="http://www.w3.org/2000/svg" width="24" height="24" fill="currentColor" viewBox="0 0 24 24">
  <path fill-rule="evenodd" d="M5.17 2.25h.463c1.092 0 1.958 0 2.655.057.714.058 1.317.18 1.868.46A4.75 4.75 0 0 1 12 4.439a4.75 4.75 0 0 1 1.844-1.67c.55-.281 1.154-.403 1.868-.461.697-.057 1.563-.057 2.655-.057h.463c.535 0 .98 0 1.345.03.38.03.736.098 1.073.27a2.75 2.75 0 0 1 1.202 1.202c.172.337.24.693.27 1.073.03.365.03.81.03 1.345v8.66c0 .535 0 .98-.03 1.345-.03.38-.098.736-.27 1.073a2.751 2.751 0 0 1-1.201 1.202c-.338.172-.694.24-1.074.27-.365.03-.81.03-1.345.03h-1.405c-1.299 0-1.792.008-2.229.14a3.235 3.235 0 0 0-1.119.6c-.352.289-.632.695-1.353 1.776l-.1.15a.75.75 0 0 1-1.248 0l-.1-.15c-.72-1.08-1-1.487-1.353-1.777a3.25 3.25 0 0 0-1.12-.599c-.436-.132-.93-.14-2.228-.14H5.17c-.535 0-.98 0-1.345-.03-.38-.03-.736-.098-1.073-.27A2.75 2.75 0 0 1 1.55 17.25c-.172-.338-.24-.694-.27-1.074-.03-.365-.03-.81-.03-1.345V6.17c0-.535 0-.98.03-1.345.03-.38.098-.736.27-1.073A2.75 2.75 0 0 1 2.752 2.55c.337-.172.693-.24 1.073-.27.365-.03.81-.03 1.345-.03Zm6.08 7.15c0-1.132 0-1.937-.052-2.566-.05-.62-.147-1.005-.302-1.31a3.25 3.25 0 0 0-1.42-1.42c-.305-.155-.69-.251-1.31-.302-.63-.051-1.434-.052-2.566-.052h-.4c-.572 0-.957 0-1.253.025-.287.023-.424.065-.514.111a1.25 1.25 0 0 0-.547.547c-.046.09-.088.227-.111.514-.024.296-.025.68-.025 1.253v8.6c0 .572 0 .957.025 1.252.023.288.065.425.111.515.12.236.311.427.547.547.09.046.227.088.514.111.296.024.68.025 1.253.025h1.496c1.136 0 1.867 0 2.544.205a4.749 4.749 0 0 1 1.635.875c.132.108.255.226.375.354V9.4Zm1.5 9.284c.12-.129.243-.246.375-.354a4.749 4.749 0 0 1 1.636-.875c.676-.205 1.407-.205 2.543-.205H18.8c.572 0 .957 0 1.252-.025.288-.023.425-.065.515-.111a1.25 1.25 0 0 0 .547-.547c.046-.09.088-.227.111-.515.024-.295.025-.68.025-1.252V6.2c0-.572 0-.957-.025-1.253-.023-.287-.065-.424-.111-.514a1.25 1.25 0 0 0-.547-.547c-.09-.046-.227-.088-.515-.111-.295-.024-.68-.025-1.252-.025h-.4c-1.133 0-1.937 0-2.566.052-.62.05-1.005.147-1.31.302a3.25 3.25 0 0 0-1.42 1.42c-.155.305-.251.69-.302 1.31-.051.63-.052 1.434-.052 2.566v9.284Z" clip-rule="evenodd"/>
</svg>
