<svg xmlns="http://www.w3.org/2000/svg" width="24" height="24" fill="currentColor" viewBox="0 0 24 24">
  <path fill-rule="evenodd" d="M3.574 2.25h16.852c.258 0 .494 0 .692.016.213.018.446.057.677.175.329.168.596.435.764.765.118.23.157.463.175.676.016.198.016.434.016.692v1.852c0 .258 0 .494-.016.692a1.775 1.775 0 0 1-.175.676 1.75 1.75 0 0 1-.765.765 1.653 1.653 0 0 1-.544.161v7.512c0 .813 0 1.469-.043 2-.045.546-.14 1.026-.366 1.47a3.75 3.75 0 0 1-1.639 1.64c-.444.226-.924.32-1.47.365-.531.043-1.187.043-2 .043H8.268c-.813 0-1.469 0-2-.043-.546-.045-1.026-.14-1.47-.366a3.75 3.75 0 0 1-1.64-1.639c-.226-.444-.32-.924-.365-1.47-.043-.531-.043-1.187-.043-2V8.72a1.652 1.652 0 0 1-.544-.16 1.75 1.75 0 0 1-.765-.766 1.774 1.774 0 0 1-.175-.676 9.052 9.052 0 0 1-.016-.692V4.574c0-.258 0-.494.016-.692a1.77 1.77 0 0 1 .175-.676 1.75 1.75 0 0 1 .765-.765 1.77 1.77 0 0 1 .676-.175c.198-.016.434-.016.692-.016Zm.676 6.5v7.45c0 .852 0 1.447.038 1.91.037.453.107.714.207.912.216.423.56.767.984.983.197.1.458.17.912.207.462.037 1.057.038 1.909.038h7.4c.852 0 1.447 0 1.91-.038.453-.038.714-.107.912-.207a2.25 2.25 0 0 0 .983-.983c.1-.198.17-.459.207-.913.037-.462.038-1.057.038-1.909V8.75H4.25ZM2.88 3.78h.002-.001Zm.003-.001a.626.626 0 0 1 .121-.018c.13-.01.304-.011.596-.011h16.8c.292 0 .467 0 .596.011a.625.625 0 0 1 .12.018.25.25 0 0 1 .105.104.638.638 0 0 1 .018.121c.01.13.011.304.011.596v1.8c0 .292 0 .467-.011.596a.638.638 0 0 1-.018.12.25.25 0 0 1-.105.105.626.626 0 0 1-.12.018c-.13.01-.304.011-.596.011H3.6c-.292 0-.467 0-.596-.011a.628.628 0 0 1-.12-.018.25.25 0 0 1-.105-.104.626.626 0 0 1-.018-.121A8.337 8.337 0 0 1 2.75 6.4V4.6c0-.292 0-.467.011-.596a.626.626 0 0 1 .018-.12.25.25 0 0 1 .104-.105Zm-.103.102v.001-.001Zm0 3.238v-.001.001Zm.1.101h.002-.001Zm18.24 0h-.002.001Zm.1-.1v-.002.001Zm0-3.24v.002-.001Zm-.102-.1h.001-.001ZM9.574 10.75h4.852c.258 0 .494 0 .692.016.213.018.446.057.676.175.33.167.598.435.765.764.118.23.157.464.175.677.016.198.016.434.016.692v.852c0 .258 0 .494-.016.692a1.775 1.775 0 0 1-.175.676 1.75 1.75 0 0 1-.765.765 1.77 1.77 0 0 1-.676.175c-.198.016-.434.016-.692.016H9.574c-.258 0-.494 0-.692-.016a1.775 1.775 0 0 1-.676-.175 1.75 1.75 0 0 1-.765-.765 1.774 1.774 0 0 1-.175-.676 9.053 9.053 0 0 1-.016-.692v-.852c0-.258 0-.494.016-.692a1.77 1.77 0 0 1 .175-.676 1.75 1.75 0 0 1 .765-.765c.23-.118.463-.158.676-.175.198-.016.434-.016.692-.016Zm-.693 1.53h.001-.001Zm.002-.001a.638.638 0 0 1 .121-.018c.13-.01.304-.011.596-.011h4.8c.292 0 .467 0 .596.011a.636.636 0 0 1 .12.018.25.25 0 0 1 .105.104.636.636 0 0 1 .018.121c.01.13.011.304.011.596v.8c0 .292 0 .467-.011.596a.636.636 0 0 1-.018.12.25.25 0 0 1-.104.105.636.636 0 0 1-.121.018c-.13.01-.304.011-.596.011H9.6c-.292 0-.467 0-.596-.011a.638.638 0 0 1-.12-.018.25.25 0 0 1-.105-.104.625.625 0 0 1-.018-.121 8.336 8.336 0 0 1-.011-.596v-.8c0-.292 0-.467.011-.596a.625.625 0 0 1 .018-.12.25.25 0 0 1 .104-.105Zm-.103.102v.001-.001Zm0 2.238v-.001.001Zm.1.101h.002-.001Zm6.24 0h-.002.001Zm.1-.1v-.002.001Zm0-2.24v.002-.001Zm-.102-.1h.001-.001Z" clip-rule="evenodd"/>
</svg>
