<svg xmlns="http://www.w3.org/2000/svg" width="24" height="24" fill="currentColor" viewBox="0 0 24 24">
  <path fill-rule="evenodd" d="M9.574 1.25h4.852c.258 0 .494 0 .692.016.213.018.446.057.676.175.33.168.598.435.765.765.118.23.157.463.175.676.01.112.013.237.015.37.493.008.878.034 1.222.126a3.75 3.75 0 0 1 2.651 2.651c.128.48.128 1.037.128 1.855v9.348c0 .813 0 1.469-.043 2-.045.546-.14 1.026-.366 1.47a3.75 3.75 0 0 1-1.639 1.64c-.444.226-.924.32-1.47.365-.531.043-1.187.043-2 .043H8.768c-.813 0-1.469 0-2-.043-.546-.045-1.026-.14-1.47-.366a3.75 3.75 0 0 1-1.64-1.639c-.226-.444-.32-.924-.365-1.47-.043-.531-.043-1.187-.043-2V7.884c0-.818 0-1.376.128-1.855a3.75 3.75 0 0 1 2.651-2.651c.344-.092.73-.118 1.222-.125.002-.134.006-.259.015-.37a1.77 1.77 0 0 1 .175-.677 1.75 1.75 0 0 1 .765-.765 1.77 1.77 0 0 1 .676-.175c.198-.016.434-.016.692-.016ZM7.25 4.754c-.435.006-.653.024-.833.073a2.25 2.25 0 0 0-1.591 1.59c-.07.263-.077.605-.077 1.583v9.2c0 .852 0 1.447.038 1.91.038.453.107.714.207.912.216.423.56.767.984.983.197.1.458.17.912.207.462.037 1.057.038 1.91.038h6.4c.852 0 1.447 0 1.91-.038.453-.038.714-.107.912-.207a2.25 2.25 0 0 0 .983-.983c.1-.198.17-.459.207-.913.038-.462.038-1.057.038-1.909V8c0-.978-.006-1.32-.077-1.582a2.25 2.25 0 0 0-1.59-1.591c-.18-.049-.398-.067-.834-.073a5.426 5.426 0 0 1-.015.364 1.773 1.773 0 0 1-.175.676 1.75 1.75 0 0 1-.765.765 1.77 1.77 0 0 1-.676.175c-.198.016-.434.016-.692.016H9.574c-.258 0-.494 0-.692-.016a1.774 1.774 0 0 1-.676-.175 1.75 1.75 0 0 1-.765-.765 1.774 1.774 0 0 1-.175-.676 5.455 5.455 0 0 1-.015-.364Zm8-1.154c0-.292 0-.467-.011-.596a.619.619 0 0 0-.018-.12.25.25 0 0 0-.104-.105.626.626 0 0 0-.121-.018 8.337 8.337 0 0 0-.596-.011H9.6c-.292 0-.467 0-.596.011a.626.626 0 0 0-.12.018.25.25 0 0 0-.105.104.628.628 0 0 0-.018.121c-.01.13-.01.304-.01.596v.8c0 .292 0 .467.01.596a.628.628 0 0 0 .018.12.25.25 0 0 0 .105.105.628.628 0 0 0 .12.018c.13.01.304.011.596.011h4.8c.293 0 .467 0 .596-.011a.628.628 0 0 0 .12-.018.25.25 0 0 0 .105-.104.62.62 0 0 0 .018-.121c.01-.13.011-.304.011-.596v-.8Zm-.03 1.52v-.002.001Zm-.1.1h-.002.001Zm-6.24 0h.002-.001Zm-.1-.102v.001-.001Zm0-2.237v.001-.001Zm.102-.102h-.001.001Zm6.236 0h.001-.001Zm.102.102v.001-.001Z" clip-rule="evenodd"/>
  <path fill-rule="evenodd" d="M7.251 16.5a.75.75 0 0 1 .75-.75h5a.75.75 0 1 1 0 1.5h-5a.75.75 0 0 1-.75-.75Z" clip-rule="evenodd"/>
  <path d="M7.268 13a.75.75 0 0 1 .75-.75H15a.75.75 0 0 1 0 1.5H8.018a.75.75 0 0 1-.75-.75Z"/>
</svg>
