<svg xmlns="http://www.w3.org/2000/svg" width="24" height="24" fill="currentColor" viewBox="0 0 24 24">
  <path fill-rule="evenodd" d="M2.25 6a3.75 3.75 0 1 1 7.5 0v2.25h4.5V6A3.75 3.75 0 1 1 18 9.75h-2.25v4.5H18A3.75 3.75 0 1 1 14.25 18v-2.25h-4.5V18A3.75 3.75 0 1 1 6 14.25h2.25v-4.5H6A3.75 3.75 0 0 1 2.25 6Zm6 2.25V6A2.25 2.25 0 1 0 6 8.25h2.25Zm1.5 1.5v4.5h4.5v-4.5h-4.5Zm-1.5 6H6A2.25 2.25 0 1 0 8.25 18v-2.25Zm7.5 0V18A2.25 2.25 0 1 0 18 15.75h-2.25Zm0-7.5H18A2.25 2.25 0 1 0 15.75 6v2.25Z" clip-rule="evenodd"/>
</svg>
