<svg xmlns="http://www.w3.org/2000/svg" width="24" height="24" fill="currentColor" viewBox="0 0 24 24">
  <path fill-rule="evenodd" d="m5.962 4.992 1.044.954a.75.75 0 0 1-1.012 1.108L4.908 6.06a9.205 9.205 0 0 0-2.128 5.19H4a.75.75 0 0 1 0 1.5H2.78a9.208 9.208 0 0 0 2.212 5.288l.954-1.044a.75.75 0 1 1 1.108 1.012l-.993 1.086a9.205 9.205 0 0 0 5.189 2.128V20a.75.75 0 0 1 1.5 0v1.22a9.205 9.205 0 0 0 5.189-2.128l-.993-1.086a.75.75 0 1 1 1.108-1.012l.954 1.044a9.208 9.208 0 0 0 2.212-5.288H20a.75.75 0 0 1 0-1.5h1.22a9.21 9.21 0 0 0-2.17-5.239l-1.02 1.02a.75.75 0 1 1-1.06-1.061l1.019-1.02a9.21 9.21 0 0 0-5.239-2.17V4a.75.75 0 0 1-1.5 0V2.78a9.207 9.207 0 0 0-5.288 2.212Zm-1.639-.517A10.72 10.72 0 0 1 12 1.25c5.937 0 10.75 4.813 10.75 10.75a10.72 10.72 0 0 1-3.225 7.677A10.717 10.717 0 0 1 12 22.75c-2.93 0-5.587-1.173-7.525-3.073A10.72 10.72 0 0 1 1.25 12c0-2.93 1.173-5.587 3.073-7.525ZM9.061 12 12 14.94 14.94 12 12 9.06 9.06 12Zm2.409-4.53a.75.75 0 0 1 1.06 0l4 4a.75.75 0 0 1 0 1.06l-4 4a.75.75 0 0 1-1.06 0l-4-4a.75.75 0 0 1 0-1.06l4-4Z" clip-rule="evenodd"/>
</svg>
