<svg xmlns="http://www.w3.org/2000/svg" width="24" height="24" fill="currentColor" viewBox="0 0 24 24">
  <path fill-rule="evenodd" d="M7.768 2.25h8.464c.813 0 1.469 0 2 .043.546.045 1.026.14 1.47.366a3.75 3.75 0 0 1 1.64 1.639c.226.444.32.924.365 1.47.043.531.043 1.187.043 2v5.464c0 .813 0 1.469-.043 2-.045.546-.14 1.026-.366 1.47a3.75 3.75 0 0 1-1.639 1.64c-.444.226-.924.32-1.47.365-.531.043-1.187.043-2 .043h-2.548c-.654 0-.877.003-1.084.046-.198.04-.39.108-.571.2-.188.096-.364.233-.875.642l-2.409 1.926c-.188.15-.367.294-.522.396-.15.1-.402.25-.722.25-.38 0-.74-.173-.978-.47-.2-.25-.24-.541-.256-.72-.017-.185-.017-.414-.017-.655v-1.618c-.492-.007-.877-.033-1.22-.125a3.75 3.75 0 0 1-2.652-2.651c-.128-.48-.128-1.037-.128-1.855V7.768c0-.813 0-1.469.043-2 .045-.546.14-1.026.366-1.47a3.75 3.75 0 0 1 1.639-1.64c.444-.226.924-.32 1.47-.365.531-.043 1.187-.043 2-.043ZM5.89 3.788c-.454.037-.715.107-.912.207a2.25 2.25 0 0 0-.984.984c-.1.197-.17.458-.207.912-.037.462-.038 1.057-.038 1.909V14c0 .978.006 1.32.077 1.582a2.25 2.25 0 0 0 1.59 1.591c.263.07.605.077 1.583.077a.75.75 0 0 1 .75.75v2.439l.081-.064 2.386-1.909.056-.045c.433-.347.733-.587 1.073-.76.301-.154.621-.267.953-.334.374-.077.758-.077 1.313-.077H16.2c.852 0 1.447 0 1.91-.038.453-.038.714-.107.912-.207a2.25 2.25 0 0 0 .983-.983c.1-.198.17-.459.207-.913.038-.462.038-1.056.038-1.909V7.8c0-.852 0-1.447-.038-1.91-.037-.453-.107-.714-.207-.911a2.25 2.25 0 0 0-.983-.984c-.198-.1-.459-.17-.913-.207-.462-.037-1.057-.038-1.909-.038H7.8c-.852 0-1.447 0-1.91.038Z" clip-rule="evenodd"/>
  <path fill-rule="evenodd" d="M12 5.75a.75.75 0 0 1 .7.48l.805 2.093c.126.33.148.37.168.398a.45.45 0 0 0 .106.106c.028.02.069.042.398.168l2.092.805a.75.75 0 0 1 0 1.4l-2.092.805c-.33.126-.37.148-.398.168a.452.452 0 0 0-.106.106c-.02.028-.042.069-.168.398l-.805 2.092a.75.75 0 0 1-1.4 0l-.805-2.092c-.126-.33-.148-.37-.168-.398a.452.452 0 0 0-.106-.106c-.028-.02-.069-.042-.398-.168L7.731 11.2a.75.75 0 0 1 0-1.4l2.092-.805c.33-.126.37-.148.398-.168a.45.45 0 0 0 .106-.106c.02-.028.042-.069.168-.398l.805-2.092a.75.75 0 0 1 .7-.481Zm0 2.84-.105.272-.02.054c-.092.239-.181.471-.325.674a1.95 1.95 0 0 1-.46.46c-.203.144-.435.233-.674.324l-.054.021-.273.105.273.105.054.02c.239.092.471.181.674.325.178.127.333.282.46.46.144.203.233.435.324.674l.021.054.105.273.105-.273.02-.054c.092-.239.181-.471.325-.674a1.95 1.95 0 0 1 .46-.46c.203-.144.435-.233.674-.324l.054-.021.273-.105-.273-.105-.054-.02c-.239-.092-.471-.181-.674-.325a1.95 1.95 0 0 1-.46-.46c-.144-.203-.233-.435-.324-.674a53.063 53.063 0 0 1-.021-.054L12 8.589Z" clip-rule="evenodd"/>
</svg>
