<svg xmlns="http://www.w3.org/2000/svg" width="24" height="24" fill="currentColor" viewBox="0 0 24 24">
  <path fill-rule="evenodd" d="M5.74 1.25h2.776c.634 0 1.155 0 1.578.034.439.036.839.112 1.214.3.584.295 1.06.766 1.359 1.347.192.373.27.772.305 1.208.035.42.035.936.035 1.563v6.596c0 .627 0 1.143-.035 1.563-.036.436-.113.835-.305 1.208a3.094 3.094 0 0 1-1.36 1.346c-.374.19-.774.265-1.213.3-.423.035-.944.035-1.578.035H5.741c-.634 0-1.155 0-1.578-.034-.439-.036-.839-.112-1.214-.3a3.095 3.095 0 0 1-1.359-1.347c-.192-.373-.27-.772-.305-1.208-.035-.42-.035-.936-.035-1.563V5.702c0-.627 0-1.143.035-1.563.036-.436.113-.835.305-1.208a3.095 3.095 0 0 1 1.36-1.346c.374-.19.774-.265 1.213-.3.423-.035.944-.035 1.578-.035ZM4.285 2.78c-.348.027-.53.079-.66.144a1.595 1.595 0 0 0-.7.693c-.065.126-.116.303-.144.646-.03.35-.03.804-.03 1.47v6.534c0 .666 0 1.12.03 1.47.028.343.08.52.144.646a1.6 1.6 0 0 0 .7.693c.13.065.312.117.66.145.356.028.815.029 1.487.029h2.714c.673 0 1.132 0 1.488-.03.347-.027.53-.079.66-.144a1.6 1.6 0 0 0 .7-.693c.065-.126.116-.303.144-.645.03-.352.03-.805.03-1.471V5.733c0-.666 0-1.12-.03-1.47-.028-.343-.08-.52-.144-.646a1.596 1.596 0 0 0-.7-.693c-.13-.065-.313-.117-.66-.145-.356-.028-.815-.029-1.488-.029H5.771c-.672 0-1.131 0-1.487.03Zm15.713 6.994A18.786 18.786 0 0 0 18.7 9.75h-3.2a.75.75 0 0 1 0-1.5h3.23c.552 0 1.01 0 1.382.029.388.03.747.094 1.087.258.526.253.961.66 1.236 1.172.181.335.252.69.284 1.066.031.357.031.794.031 1.313v6.824c0 .519 0 .956-.03 1.313-.033.375-.104.73-.285 1.066a2.76 2.76 0 0 1-1.236 1.172c-.34.164-.7.228-1.087.258-.373.03-.83.03-1.383.03h-4.084c-.553 0-1.01 0-1.384-.03-.387-.03-.746-.094-1.086-.258a2.76 2.76 0 0 1-1.237-1.172c-.18-.335-.25-.69-.283-1.066-.031-.357-.031-.794-.031-1.313v-.032a.75.75 0 1 1 1.5 0c0 .56 0 .93.025 1.216.024.276.066.402.11.483.12.223.316.412.566.533.102.049.251.09.552.114.308.024.708.024 1.297.024H18.7c.59 0 .989 0 1.297-.024.3-.023.45-.066.551-.114.251-.12.447-.31.567-.532.044-.082.086-.208.11-.484.024-.285.025-.657.025-1.216v-6.76c0-.56 0-.93-.025-1.216-.024-.275-.066-.402-.11-.483a1.261 1.261 0 0 0-.567-.533c-.1-.048-.25-.09-.551-.114Z" clip-rule="evenodd"/>
  <path d="M15.21 18.5c-.232 0-.41-.068-.533-.204-.118-.142-.177-.343-.177-.604v-4.383c0-.261.06-.46.177-.596.123-.142.3-.213.532-.213h1.589c.906 0 1.605.261 2.097.783.497.522.746 1.26.746 2.213 0 .476-.064.902-.192 1.276a2.654 2.654 0 0 1-.554.945 2.386 2.386 0 0 1-.893.587c-.35.13-.751.196-1.204.196h-1.589Zm.79-1.268h.71c.26 0 .484-.037.671-.11a1.18 1.18 0 0 0 .473-.324c.128-.142.221-.32.28-.536a2.71 2.71 0 0 0 .096-.766c0-.59-.125-1.024-.376-1.302-.251-.284-.633-.426-1.145-.426H16v3.464ZM5.209 12c-.231 0-.409-.068-.532-.204-.118-.142-.177-.343-.177-.604V6.808c0-.261.06-.46.177-.596C4.8 6.07 4.977 6 5.21 6h1.589c.906 0 1.605.261 2.097.783.497.522.746 1.26.746 2.213 0 .476-.064.902-.192 1.276a2.653 2.653 0 0 1-.554.945 2.382 2.382 0 0 1-.894.587c-.35.13-.75.196-1.203.196h-1.59ZM6 10.732h.709c.261 0 .485-.037.672-.11a1.18 1.18 0 0 0 .473-.324c.128-.142.221-.32.28-.536a2.71 2.71 0 0 0 .096-.766c0-.59-.125-1.024-.376-1.302-.251-.284-.633-.426-1.145-.426H6v3.464Z"/>
</svg>
