<svg xmlns="http://www.w3.org/2000/svg" width="24" height="24" fill="currentColor" viewBox="0 0 24 24">
  <path fill-rule="evenodd" d="M18.052 2.775c-.295-.024-.68-.025-1.252-.025h-8c-.852 0-1.447 0-1.91.038-.453.037-.714.107-.911.207a2.25 2.25 0 0 0-.984.984c-.1.197-.17.458-.207.912-.037.462-.038 1.057-.038 1.909V16A3.734 3.734 0 0 1 7 15.25h12.25V5.2c0-.572 0-.957-.025-1.253-.023-.287-.065-.424-.111-.514a1.25 1.25 0 0 0-.547-.547c-.09-.046-.227-.088-.515-.111ZM20.75 5.17c0-.535 0-.98-.03-1.345-.03-.38-.098-.736-.27-1.073a2.75 2.75 0 0 0-1.2-1.202c-.338-.172-.694-.24-1.074-.27-.365-.03-.81-.03-1.345-.03H8.768c-.813 0-1.469 0-2 .043-.546.045-1.026.14-1.47.366a3.75 3.75 0 0 0-1.64 1.639c-.226.444-.32.924-.365 1.47-.043.531-.043 1.187-.043 2v10.464c0 .551 0 1.03.014 1.447A3.801 3.801 0 0 0 3.25 19c0 .09.016.178.046.258.045.536.14 1.008.363 1.445a3.75 3.75 0 0 0 1.639 1.638c.444.227.924.321 1.47.366.531.043 1.187.043 2 .043h8.063c.534 0 .98 0 1.344-.03.38-.03.736-.098 1.073-.27a2.751 2.751 0 0 0 1.202-1.201c.172-.338.24-.694.27-1.074.027-.323.03-.71.03-1.167V5.17ZM4.766 18.729c.006.137.013.263.022.38.037.454.107.715.207.912.216.424.56.768.984.984.197.1.458.17.912.207.462.037 1.057.038 1.909.038h8c.572 0 .957 0 1.252-.025.288-.023.425-.065.515-.111a1.25 1.25 0 0 0 .547-.547c.046-.09.088-.227.111-.515.024-.295.025-.68.025-1.252v-2.05H7c-1.15 0-2.1.864-2.234 1.979Z" clip-rule="evenodd"/>
  <path d="M12.252 12.626c-.775 0-1.442-.145-2.002-.434a3.13 3.13 0 0 1-1.302-1.232c-.299-.532-.448-1.162-.448-1.89 0-.71.145-1.33.434-1.862a3.256 3.256 0 0 1 1.218-1.246c.523-.308 1.115-.462 1.778-.462.485 0 .92.08 1.302.238.392.159.723.387.994.686.28.299.49.663.63 1.092.15.42.224.896.224 1.428 0 .168-.06.299-.182.392-.112.084-.275.126-.49.126H9.914V8.5h3.666c0-.43-.021-.625-.152-.914a1.366 1.366 0 0 0-.546-.658c-.233-.159-.527-.238-.882-.238-.392 0-.728.093-1.008.28-.27.177-.48.434-.63.77a2.633 2.633 0 0 0-.189.76h-.259v.962h.26c.059.545.228.97.51 1.274.364.373.896.56 1.596.56.243 0 .513-.028.812-.084.308-.065.597-.173.868-.322.196-.112.369-.159.518-.14.15.01.266.06.35.154a.59.59 0 0 1 .168.35.655.655 0 0 1-.084.406.866.866 0 0 1-.35.364c-.327.205-.705.36-1.134.462a5.46 5.46 0 0 1-1.176.14Z"/>
</svg>
