<svg xmlns="http://www.w3.org/2000/svg" width="24" height="24" fill="currentColor" viewBox="0 0 24 24">
  <path fill-rule="evenodd" d="M16.47 2.47a3.578 3.578 0 0 1 5.06 5.06l-2.997 2.998-.003.002-.002.003L8.324 20.737l-.043.043c-.252.252-.45.45-.685.605a2.746 2.746 0 0 1-.667.321c-.267.087-.547.117-.9.157l-.062.006-3.384.377a.75.75 0 0 1-.828-.829l.376-3.384.006-.061c.04-.354.07-.634.157-.9a2.75 2.75 0 0 1 .32-.668c.155-.234.354-.433.606-.685l.043-.043L16.47 2.47ZM14 7.06l-9.676 9.677c-.315.315-.397.402-.457.493a1.25 1.25 0 0 0-.146.303c-.034.104-.05.222-.1.665l-.272 2.453 2.453-.272c.443-.05.56-.066.665-.1a1.25 1.25 0 0 0 .303-.146c.091-.06.178-.142.493-.457L16.94 10 14 7.06Zm4 1.88L15.06 6l2.47-2.47a2.078 2.078 0 1 1 2.94 2.94L18 8.94Z" clip-rule="evenodd"/>
</svg>
