<svg xmlns="http://www.w3.org/2000/svg" width="24" height="24" fill="currentColor" viewBox="0 0 24 24">
  <path fill-rule="evenodd" d="M16.955 7.227a.75.75 0 0 1 1.06 0l4.243 4.243a.75.75 0 0 1 0 1.06l-4.242 4.243a.75.75 0 1 1-1.061-1.06l2.962-2.963h-5.089a.75.75 0 0 1 0-1.5h5.09l-2.963-2.962a.75.75 0 0 1 0-1.061ZM9.922 12a.75.75 0 0 1-.75.75h-5.09l2.963 2.962a.75.75 0 0 1-1.06 1.061L1.741 12.53a.75.75 0 0 1 0-1.06l4.242-4.243a.75.75 0 1 1 1.061 1.06L4.083 11.25h5.089a.75.75 0 0 1 .75.75Z" clip-rule="evenodd"/>
</svg>
