<svg xmlns="http://www.w3.org/2000/svg" width="24" height="24" fill="currentColor" viewBox="0 0 24 24">
  <path fill-rule="evenodd" d="M3.75 4.81V8a.75.75 0 0 1-1.5 0V3A.75.75 0 0 1 3 2.25h5a.75.75 0 0 1 0 1.5H4.81l3.72 3.72a.75.75 0 0 1-1.06 1.06L3.75 4.81ZM16 3.75a.75.75 0 0 1 0-1.5h5a.75.75 0 0 1 .75.75v5a.75.75 0 0 1-1.5 0V4.81l-3.72 3.72a.75.75 0 1 1-1.06-1.06l3.72-3.72H16ZM3 15.25a.75.75 0 0 1 .75.75v3.19l3.72-3.72a.75.75 0 0 1 1.06 1.06l-3.72 3.72H8a.75.75 0 0 1 0 1.5H3a.75.75 0 0 1-.75-.75v-5a.75.75 0 0 1 .75-.75Zm16.19 5-3.72-3.72a.75.75 0 1 1 1.06-1.06l3.72 3.72V16a.75.75 0 0 1 1.5 0v5a.75.75 0 0 1-.75.75h-5a.75.75 0 0 1 0-1.5h3.19Z" clip-rule="evenodd"/>
</svg>
