<svg xmlns="http://www.w3.org/2000/svg" width="24" height="24" fill="currentColor" viewBox="0 0 24 24">
  <path fill-rule="evenodd" d="M2.47 2.47a.75.75 0 0 1 1.06 0l3.65 3.65a.726.726 0 0 1 .139.138l10.414 10.414c.06.044.113.097.16.16l3.638 3.638a.75.75 0 1 1-1.06 1.06l-3.292-3.291c-1.449.88-3.185 1.511-5.179 1.511-2.784 0-5.062-1.23-6.763-2.65-1.698-1.417-2.866-3.06-3.451-3.986a11.708 11.708 0 0 0-.022-.035c-.119-.187-.25-.395-.317-.688a1.91 1.91 0 0 1 0-.782c.067-.294.199-.502.318-.69l.022-.034c.62-.981 1.9-2.779 3.783-4.255l-3.1-3.1a.75.75 0 0 1 0-1.06ZM6.64 7.7c-1.766 1.342-2.99 3.045-3.585 3.986a3.334 3.334 0 0 0-.127.21.174.174 0 0 0-.018.044l-.002.012a.527.527 0 0 0 .002.107.173.173 0 0 0 .018.045c.02.04.052.092.126.209.54.855 1.61 2.356 3.145 3.636C7.73 17.228 9.678 18.25 12 18.25c1.526 0 2.89-.442 4.082-1.108l-2.014-2.013a3.75 3.75 0 0 1-5.197-5.197L6.64 7.7Zm3.33 3.33a2.25 2.25 0 0 0 3.001 3.001L9.97 11.03ZM12 5.75c-.394 0-.777.03-1.147.084a.75.75 0 1 1-.22-1.484c.442-.065.898-.1 1.367-.1 2.785 0 5.063 1.23 6.764 2.65 1.698 1.417 2.866 3.06 3.45 3.986l.023.035c.119.187.25.395.317.688a1.91 1.91 0 0 1 0 .782c-.067.294-.2.502-.319.69l-.022.035c-.314.497-.79 1.192-1.422 1.946a.75.75 0 1 1-1.15-.963 16.745 16.745 0 0 0 1.304-1.784c.074-.117.107-.17.128-.21a.176.176 0 0 0 .018-.045l.002-.012a.526.526 0 0 0-.002-.107.176.176 0 0 0-.018-.045 3.35 3.35 0 0 0-.126-.209c-.54-.855-1.61-2.356-3.145-3.636C16.27 6.772 14.321 5.75 12 5.75Z" clip-rule="evenodd"/>
</svg>
