<svg xmlns="http://www.w3.org/2000/svg" width="24" height="24" fill="currentColor" viewBox="0 0 24 24">
  <path fill-rule="evenodd" d="M12 9.75a2.25 2.25 0 1 0 0 4.5 2.25 2.25 0 0 0 0-4.5ZM5.238 6.9C6.937 5.48 9.216 4.25 12 4.25c2.785 0 5.063 1.23 6.764 2.65 1.698 1.417 2.866 3.06 3.45 3.986l.023.035c.118.187.25.394.317.688.054.235.054.547 0 .782-.067.294-.199.5-.317.688l-.022.035c-.585.926-1.753 2.569-3.451 3.987-1.701 1.419-3.98 2.649-6.764 2.649-2.784 0-5.062-1.23-6.763-2.65-1.698-1.417-2.866-3.06-3.451-3.986a11.708 11.708 0 0 0-.022-.035c-.119-.187-.25-.394-.317-.688a1.91 1.91 0 0 1 0-.782c.067-.294.198-.5.317-.688l.022-.035C2.371 9.96 3.539 8.317 5.237 6.9Z" clip-rule="evenodd"/>
</svg>
