<svg xmlns="http://www.w3.org/2000/svg" width="24" height="24" fill="currentColor" viewBox="0 0 24 24">
  <path fill-rule="evenodd" d="M6.198 8.051c-1.533 1.28-2.604 2.781-3.144 3.636a3.315 3.315 0 0 0-.126.209.173.173 0 0 0-.018.044l-.002.012a.527.527 0 0 0 0 .096.173.173 0 0 0 .02.056c.02.04.052.092.126.209.54.855 1.61 2.356 3.144 3.636C7.731 17.228 9.68 18.25 12 18.25c2.321 0 4.27-1.022 5.802-2.301 1.534-1.28 2.604-2.781 3.145-3.636a3.33 3.33 0 0 0 .126-.209.174.174 0 0 0 .018-.044l.002-.012a.525.525 0 0 0 0-.096l-.002-.011a.174.174 0 0 0-.018-.045 3.33 3.33 0 0 0-.126-.209c-.54-.855-1.61-2.356-3.145-3.636C16.27 6.772 14.321 5.75 12 5.75c-2.32 0-4.27 1.022-5.802 2.301Zm-.96-1.152C6.937 5.48 9.215 4.25 12 4.25c2.785 0 5.063 1.23 6.764 2.65 1.698 1.417 2.866 3.06 3.45 3.986l.023.035c.118.187.25.394.317.688.054.235.054.547 0 .782-.067.294-.199.5-.317.688l-.022.035c-.585.926-1.753 2.569-3.451 3.987-1.701 1.419-3.98 2.649-6.764 2.649-2.784 0-5.062-1.23-6.763-2.65-1.698-1.417-2.866-3.06-3.451-3.986a11.708 11.708 0 0 0-.022-.035c-.119-.187-.25-.394-.317-.688a1.91 1.91 0 0 1 0-.782c.067-.294.198-.5.317-.688l.022-.035C2.371 9.96 3.539 8.317 5.237 6.9ZM12 9.75a2.25 2.25 0 1 0 0 4.5 2.25 2.25 0 0 0 0-4.5ZM8.25 12a3.75 3.75 0 1 1 7.5 0 3.75 3.75 0 0 1-7.5 0Z" clip-rule="evenodd"/>
</svg>
