<svg xmlns="http://www.w3.org/2000/svg" width="24" height="24" fill="currentColor" viewBox="0 0 24 24">
  <path fill-rule="evenodd" d="M14 1.25H8.768c-.813 0-1.469 0-2 .043-.546.045-1.026.14-1.47.366a3.75 3.75 0 0 0-1.64 1.639c-.226.444-.32.924-.365 1.47-.043.531-.043 1.187-.043 2v10.464c0 .813 0 1.469.043 2 .045.546.14 1.026.366 1.47a3.75 3.75 0 0 0 1.639 1.64c.444.226.924.32 1.47.365.531.043 1.187.043 2 .043h6.464c.813 0 1.469 0 2-.043.546-.045 1.026-.14 1.47-.366a3.75 3.75 0 0 0 1.64-1.639c.226-.444.32-.924.365-1.47.043-.531.043-1.187.043-2V8a.75.75 0 0 0-.22-.53l-6-6a.75.75 0 0 0-.53-.22Zm4 6.19L14.56 4v2.59c0 .292.001.466.012.595a.638.638 0 0 0 .017.121.25.25 0 0 0 .105.105.626.626 0 0 0 .12.017c.13.01.304.011.597.011H18Zm-.333 8.913c.072.108.097.205.078.292a.387.387 0 0 1-.149.227.575.575 0 0 1-.273.119.606.606 0 0 1-.309-.027.505.505 0 0 1-.255-.205l-.44-.644a.37.37 0 0 0-.172-.14.756.756 0 0 0-.28-.044c-.42 0-.79-.082-1.11-.243a1.839 1.839 0 0 1-.749-.692 1.996 1.996 0 0 1-.26-1.033c0-.296.049-.564.148-.806.102-.241.247-.449.433-.622.19-.173.416-.304.677-.394.262-.094.55-.141.867-.141.424 0 .795.081 1.111.243.321.163.57.391.749.687.178.292.267.636.267 1.033 0 .296-.052.564-.154.806-.1.241-.244.45-.434.627a1.845 1.845 0 0 1-.428.296.77.77 0 0 1 .463.342l.22.319Zm-1.794-1.255a1 1 0 0 0 .535-.135c.147-.09.26-.22.339-.39.079-.168.119-.372.119-.61 0-.357-.088-.635-.262-.833-.174-.198-.418-.297-.73-.297a1.02 1.02 0 0 0-.535.135.848.848 0 0 0-.339.384c-.079.166-.118.37-.118.61 0 .358.087.637.261.839.174.198.418.297.73.297Zm-5.109.774c-.186 0-.329-.044-.428-.13-.095-.09-.142-.218-.142-.384v-2.785c0-.166.047-.292.142-.378.1-.09.242-.136.428-.136h2.014c.142 0 .25.033.32.098.072.065.107.158.107.281 0 .126-.035.223-.107.292-.07.065-.178.097-.32.097h-1.539v.725h1.408c.139 0 .243.032.315.097.075.065.113.16.113.287 0 .126-.038.222-.113.286-.072.065-.176.098-.315.098h-1.408v.784h1.539c.142 0 .25.034.32.103.072.064.107.158.107.28 0 .127-.035.222-.107.287-.07.065-.178.098-.32.098h-2.014Zm-4.621-.081c.095.086.23.13.403.13.183 0 .32-.044.41-.13a.501.501 0 0 0 .137-.374v-.967h.327a.61.61 0 0 1 .25.048.367.367 0 0 1 .183.162l.54.903a.79.79 0 0 0 .256.27.747.747 0 0 0 .38.087c.155 0 .272-.03.35-.092a.315.315 0 0 0 .131-.243.55.55 0 0 0-.089-.308l-.297-.487a.859.859 0 0 0-.525-.417c.08-.02.154-.045.222-.075.222-.097.39-.234.505-.41.12-.181.178-.392.178-.633 0-.375-.13-.667-.392-.877-.257-.212-.623-.319-1.098-.319H6.552a.607.607 0 0 0-.41.13c-.094.087-.142.211-.142.373v2.855a.49.49 0 0 0 .143.374Zm1.675-2.044h-.725v-.925h.725c.21 0 .37.04.48.119.112.076.167.19.167.34 0 .16-.055.276-.166.352-.111.076-.272.114-.481.114Z" clip-rule="evenodd"/>
</svg>
