<svg xmlns="http://www.w3.org/2000/svg" width="24" height="24" fill="currentColor" viewBox="0 0 24 24">
  <path fill-rule="evenodd" d="M8.768 22.75h6.464c.813 0 1.469 0 2-.043.546-.045 1.026-.14 1.47-.366a3.75 3.75 0 0 0 1.64-1.639c.226-.444.32-.924.365-1.47.043-.531.043-1.187.043-2V13.5a.75.75 0 0 0-1.5 0v3.7c0 .852 0 1.447-.038 1.91-.038.453-.107.714-.207.912-.216.423-.56.767-.983.983-.198.1-.459.17-.913.207-.462.037-1.057.038-1.909.038H8.8c-.852 0-1.447 0-1.91-.038-.453-.038-.714-.107-.911-.207a2.25 2.25 0 0 1-.984-.983c-.1-.198-.17-.459-.207-.913-.037-.462-.038-1.057-.038-1.909V6.8c0-.852 0-1.447.038-1.91.037-.453.107-.714.207-.911a2.25 2.25 0 0 1 .984-.984c.197-.1.458-.17.912-.207.462-.037 1.057-.038 1.909-.038H12a.75.75 0 0 0 0-1.5H8.768c-.813 0-1.469 0-2 .043-.546.045-1.026.14-1.47.366a3.75 3.75 0 0 0-1.64 1.639c-.226.444-.32.924-.365 1.47-.043.531-.043 1.187-.043 2v10.464c0 .813 0 1.469.043 2 .045.546.14 1.026.366 1.47a3.75 3.75 0 0 0 1.639 1.64c.444.226.924.32 1.47.365.531.043 1.187.043 2 .043Z" clip-rule="evenodd"/>
  <path fill-rule="evenodd" d="M17.47 2.47a.75.75 0 0 1 1.06 0l3 3a.75.75 0 0 1 0 1.06l-3 3a.75.75 0 1 1-1.06-1.06l1.72-1.72H17.8c-.852 0-1.447 0-1.91.038-.453.037-.714.107-.912.207a2.25 2.25 0 0 0-.983.984c-.1.197-.17.458-.207.912-.037.462-.038 1.057-.038 1.909V12a.75.75 0 0 1-1.5 0v-1.232c0-.813 0-1.469.043-2 .045-.546.14-1.026.366-1.47a3.75 3.75 0 0 1 1.638-1.64c.445-.226.925-.32 1.471-.365.531-.043 1.187-.043 2-.043h1.421l-1.72-1.72a.75.75 0 0 1 0-1.06Z" clip-rule="evenodd"/>
</svg>
