<svg xmlns="http://www.w3.org/2000/svg" width="24" height="24" fill="currentColor" viewBox="0 0 24 24">
  <path fill-rule="evenodd" d="M8.768 1.25H14a.75.75 0 0 1 .53.22l6 6c.141.14.22.331.22.53v9.232c0 .813 0 1.469-.043 2-.045.546-.14 1.026-.366 1.47a3.75 3.75 0 0 1-1.639 1.64c-.444.226-.924.32-1.47.365-.531.043-1.187.043-2 .043H8.768c-.813 0-1.469 0-2-.043-.546-.045-1.026-.14-1.47-.366a3.75 3.75 0 0 1-1.64-1.639c-.226-.444-.32-.924-.365-1.47-.043-.531-.043-1.187-.043-2V6.768c0-.813 0-1.469.043-2 .045-.546.14-1.026.366-1.47a3.75 3.75 0 0 1 1.639-1.64c.444-.226.924-.32 1.47-.365.531-.043 1.187-.043 2-.043ZM6.89 2.788c-.454.037-.715.107-.912.207a2.25 2.25 0 0 0-.984.984c-.1.197-.17.458-.207.912-.037.462-.038 1.057-.038 1.909v10.4c0 .852 0 1.447.038 1.91.037.453.107.714.207.912.216.423.56.767.984.983.197.1.458.17.912.207.462.037 1.057.038 1.909.038h6.4c.852 0 1.447 0 1.91-.038.453-.038.714-.107.912-.207.423-.216.767-.56.983-.983.1-.198.17-.459.207-.913.037-.462.038-1.057.038-1.909V8.75h-3.676c-.258 0-.494 0-.692-.016a1.774 1.774 0 0 1-.676-.175 1.75 1.75 0 0 1-.765-.764 1.775 1.775 0 0 1-.175-.677c-.016-.198-.016-.434-.016-.692V2.75H8.8c-.852 0-1.447 0-1.91.038Zm7.859 1.023 3.44 3.44H15.6c-.292 0-.467-.002-.596-.012a.626.626 0 0 1-.12-.018.25.25 0 0 1-.105-.104.638.638 0 0 1-.018-.121 8.375 8.375 0 0 1-.011-.596V3.81Z" clip-rule="evenodd"/>
  <path d="M15.214 16a.535.535 0 0 1-.387-.134c-.09-.094-.135-.226-.135-.398v-2.936c0-.172.045-.302.135-.392.093-.093.228-.14.403-.14h1.866c.135 0 .236.034.303.1.067.068.101.165.101.292a.43.43 0 0 1-.1.303c-.068.067-.169.1-.303.1h-1.373v.796h1.25c.13 0 .229.034.296.1.071.068.107.165.107.292 0 .13-.036.23-.107.297-.067.067-.166.101-.297.101h-1.25v1.087c0 .355-.17.532-.51.532Zm-4.389-.05c-.176 0-.31-.045-.403-.135-.09-.093-.135-.226-.135-.398v-2.885c0-.172.045-.302.134-.392.094-.093.228-.14.404-.14h1.098c.688 0 1.218.172 1.592.515.377.344.566.83.566 1.457 0 .314-.049.594-.146.84-.097.243-.237.45-.42.622-.183.168-.41.297-.678.387-.265.086-.57.129-.914.129h-1.098Zm.493-.835h.538c.198 0 .368-.024.51-.073a.899.899 0 0 0 .359-.213.823.823 0 0 0 .213-.353c.048-.142.072-.31.072-.504 0-.388-.095-.674-.285-.857-.19-.187-.48-.28-.869-.28h-.538v2.28ZM7.016 16c-.165 0-.292-.045-.382-.134a.535.535 0 0 1-.134-.387v-2.958c0-.168.045-.297.134-.387A.535.535 0 0 1 7.021 12H8.4c.448 0 .794.116 1.036.347.247.228.37.544.37.947 0 .403-.123.72-.37.952-.242.228-.588.342-1.036.342h-.87v.891a.549.549 0 0 1-.129.387c-.086.09-.215.134-.386.134Zm.515-2.202h.69c.194 0 .343-.04.448-.123.104-.086.157-.213.157-.38 0-.173-.053-.3-.157-.382-.105-.082-.254-.123-.449-.123h-.689v1.008Z"/>
</svg>
