<svg xmlns="http://www.w3.org/2000/svg" width="24" height="24" fill="currentColor" viewBox="0 0 24 24">
  <path fill-rule="evenodd" d="M8.768 1.25H14a.75.75 0 0 1 .53.22l6 6c.141.14.22.331.22.53v9.232c0 .813 0 1.469-.043 2-.045.546-.14 1.026-.366 1.47a3.75 3.75 0 0 1-1.639 1.64c-.444.226-.924.32-1.47.365-.531.043-1.187.043-2 .043H8.768c-.813 0-1.469 0-2-.043-.546-.045-1.026-.14-1.47-.366a3.75 3.75 0 0 1-1.64-1.639c-.226-.444-.32-.924-.365-1.47-.043-.531-.043-1.187-.043-2V6.768c0-.813 0-1.469.043-2 .045-.546.14-1.026.366-1.47a3.75 3.75 0 0 1 1.639-1.64c.444-.226.924-.32 1.47-.365.531-.043 1.187-.043 2-.043ZM6.89 2.788c-.454.037-.715.107-.912.207a2.25 2.25 0 0 0-.984.984c-.1.197-.17.458-.207.912-.037.462-.038 1.057-.038 1.909v10.4c0 .852 0 1.447.038 1.91.037.453.107.714.207.912.216.423.56.767.984.983.197.1.458.17.912.207.462.037 1.057.038 1.909.038h6.4c.852 0 1.447 0 1.91-.038.453-.038.714-.107.912-.207.423-.216.767-.56.983-.983.1-.198.17-.459.207-.913.037-.462.038-1.057.038-1.909V8.75h-3.676c-.258 0-.494 0-.692-.016a1.774 1.774 0 0 1-.676-.175 1.75 1.75 0 0 1-.765-.764 1.775 1.775 0 0 1-.175-.677c-.016-.198-.016-.434-.016-.692V2.75H8.8c-.852 0-1.447 0-1.91.038Zm7.859 1.023 3.44 3.44H15.6c-.292 0-.467-.002-.596-.012a.626.626 0 0 1-.12-.018.25.25 0 0 1-.105-.104.638.638 0 0 1-.018-.121 8.375 8.375 0 0 1-.011-.596V3.81Z" clip-rule="evenodd"/>
  <path d="M16.718 16c-.429 0-.797-.082-1.105-.248a1.715 1.715 0 0 1-.71-.698 2.201 2.201 0 0 1-.242-1.057c0-.3.046-.574.138-.82.095-.245.23-.456.407-.632.18-.176.396-.31.649-.402.256-.095.544-.143.863-.143.169 0 .343.02.523.06.183.037.344.094.484.171a.473.473 0 0 1 .214.21.43.43 0 0 1 .039.258.495.495 0 0 1-.094.236.386.386 0 0 1-.198.143.366.366 0 0 1-.264-.038c-.11-.051-.22-.09-.33-.116a1.257 1.257 0 0 0-.335-.044c-.228 0-.418.044-.572.132a.807.807 0 0 0-.341.374 1.44 1.44 0 0 0-.116.611c0 .242.039.448.116.617a.85.85 0 0 0 .34.38c.155.084.345.126.573.126.095 0 .198-.011.308-.033.11-.026.218-.064.324-.116a.447.447 0 0 1 .292-.038.37.37 0 0 1 .209.132.47.47 0 0 1 .104.23.411.411 0 0 1-.038.254.424.424 0 0 1-.198.203 1.65 1.65 0 0 1-.479.182 2.442 2.442 0 0 1-.56.066Zm-4.524 0c-.393 0-.737-.082-1.034-.248a1.778 1.778 0 0 1-.693-.704 2.19 2.19 0 0 1-.242-1.05c0-.301.046-.575.137-.82.095-.246.23-.457.402-.633.176-.176.385-.31.627-.402.242-.095.51-.143.803-.143.392 0 .735.082 1.028.248.297.165.528.398.693.698.165.297.248.648.248 1.051 0 .301-.048.574-.143.82a1.76 1.76 0 0 1-1.023 1.045c-.242.092-.51.138-.803.138Zm0-.847a.863.863 0 0 0 .495-.138.878.878 0 0 0 .313-.396c.073-.172.11-.38.11-.622 0-.363-.08-.645-.242-.847-.161-.202-.387-.303-.676-.303a.88.88 0 0 0-.495.138.842.842 0 0 0-.314.39c-.073.17-.11.377-.11.622 0 .363.08.648.242.853.162.202.387.303.677.303Zm-5.666.787c-.172 0-.304-.044-.396-.133-.088-.091-.132-.222-.132-.39v-2.834c0-.168.044-.297.132-.385.092-.092.224-.138.396-.138h1.078c.675 0 1.195.17 1.562.507.37.337.555.814.555 1.43 0 .308-.047.584-.143.826a1.683 1.683 0 0 1-.412.61c-.18.165-.402.292-.666.38-.26.084-.559.127-.896.127H6.528Zm.484-.82h.528c.194 0 .361-.024.5-.072a.883.883 0 0 0 .352-.209.809.809 0 0 0 .21-.347 1.55 1.55 0 0 0 .071-.495c0-.381-.094-.662-.28-.842-.188-.183-.472-.275-.853-.275h-.528v2.24Z"/>
</svg>
