<svg xmlns="http://www.w3.org/2000/svg" width="24" height="24" fill="currentColor" viewBox="0 0 24 24">
  <path fill-rule="evenodd" d="M8.768 1.25H14a.75.75 0 0 1 .53.22l6 6c.141.14.22.331.22.53v9.232c0 .813 0 1.469-.043 2-.045.546-.14 1.026-.366 1.47a3.75 3.75 0 0 1-1.639 1.64c-.444.226-.924.32-1.47.365-.531.043-1.187.043-2 .043H8.768c-.813 0-1.469 0-2-.043-.546-.045-1.026-.14-1.47-.366a3.75 3.75 0 0 1-1.64-1.639c-.226-.444-.32-.924-.365-1.47-.043-.531-.043-1.187-.043-2V6.768c0-.813 0-1.469.043-2 .045-.546.14-1.026.366-1.47a3.75 3.75 0 0 1 1.639-1.64c.444-.226.924-.32 1.47-.365.531-.043 1.187-.043 2-.043ZM6.89 2.788c-.454.037-.715.107-.912.207a2.25 2.25 0 0 0-.984.984c-.1.197-.17.458-.207.912-.037.462-.038 1.057-.038 1.909v10.4c0 .852 0 1.447.038 1.91.037.453.107.714.207.912.216.423.56.767.984.983.197.1.458.17.912.207.462.037 1.057.038 1.909.038h6.4c.852 0 1.447 0 1.91-.038.453-.038.714-.107.912-.207.423-.216.767-.56.983-.983.1-.198.17-.459.207-.913.037-.462.038-1.057.038-1.909V8.75h-3.676c-.258 0-.494 0-.692-.016a1.774 1.774 0 0 1-.676-.175 1.75 1.75 0 0 1-.765-.764 1.775 1.775 0 0 1-.175-.677c-.016-.198-.016-.434-.016-.692V2.75H8.8c-.852 0-1.447 0-1.91.038Zm7.859 1.023 3.44 3.44H15.6c-.292 0-.467-.002-.596-.012a.626.626 0 0 1-.12-.018.25.25 0 0 1-.105-.104.638.638 0 0 1-.018-.121 8.375 8.375 0 0 1-.011-.596V3.81Z" clip-rule="evenodd"/>
  <path d="M9.372 18.07a.803.803 0 0 1-.518-.168.65.65 0 0 1-.21-.462c0-.187.08-.383.238-.588l2.268-2.8v.826L9.022 12.26c-.168-.205-.247-.401-.238-.588a.603.603 0 0 1 .21-.448.763.763 0 0 1 .518-.182c.215 0 .392.037.532.112.15.075.285.191.406.35l1.68 2.156h-.616l1.694-2.156c.13-.159.266-.275.406-.35a1.09 1.09 0 0 1 .518-.112c.215 0 .388.06.518.182.13.121.196.275.196.462.01.187-.07.383-.238.588l-2.114 2.59v-.784l2.268 2.772c.168.196.247.387.238.574a.629.629 0 0 1-.224.462.731.731 0 0 1-.518.182 1.09 1.09 0 0 1-.518-.112 1.381 1.381 0 0 1-.406-.35l-1.82-2.296h.588l-1.806 2.296c-.121.15-.252.266-.392.35-.14.075-.317.112-.532.112Z"/>
</svg>
