<svg width="14" height="14" viewBox="0 0 14 14" fill="none" xmlns="http://www.w3.org/2000/svg">
<path fill-rule="evenodd" clip-rule="evenodd" d="M7 0.5C7.27614 0.5 7.5 0.723858 7.5 1V7.79289L9.97978 5.31311C10.175 5.11785 10.4916 5.11785 10.6869 5.31311C10.8821 5.50838 10.8821 5.82496 10.6869 6.02022L7.35355 9.35355C7.15829 9.54882 6.84171 9.54882 6.64645 9.35355L3.31311 6.02022C3.11785 5.82496 3.11785 5.50838 3.31311 5.31311C3.50838 5.11785 3.82496 5.11785 4.02022 5.31311L6.5 7.79289V1C6.5 0.723858 6.72386 0.5 7 0.5ZM1 8.5C1.27614 8.5 1.5 8.72386 1.5 9V9.8C1.5 10.3683 1.50039 10.7645 1.52559 11.0729C1.55031 11.3755 1.5964 11.5493 1.66349 11.681C1.8073 11.9632 2.03677 12.1927 2.31901 12.3365C2.45069 12.4036 2.62454 12.4497 2.92712 12.4744C3.23554 12.4996 3.6317 12.5 4.2 12.5H9.8C10.3683 12.5 10.7645 12.4996 11.0729 12.4744C11.3755 12.4497 11.5493 12.4036 11.681 12.3365C11.9632 12.1927 12.1927 11.9632 12.3365 11.681C12.4036 11.5493 12.4497 11.3755 12.4744 11.0729C12.4996 10.7645 12.5 10.3683 12.5 9.8V9C12.5 8.72386 12.7239 8.5 13 8.5C13.2761 8.5 13.5 8.72386 13.5 9V9.82142C13.5 10.3633 13.5 10.8004 13.4711 11.1543C13.4413 11.5187 13.3784 11.8388 13.2275 12.135C12.9878 12.6054 12.6054 12.9878 12.135 13.2275C11.8388 13.3784 11.5187 13.4413 11.1543 13.4711C10.8004 13.5 10.3633 13.5 9.82142 13.5H4.17858C3.6367 13.5 3.19963 13.5 2.84569 13.4711C2.48126 13.4413 2.16117 13.3784 1.86502 13.2275C1.39462 12.9878 1.01217 12.6054 0.772484 12.135C0.62159 11.8388 0.558684 11.5187 0.528909 11.1543C0.499991 10.8004 0.499995 10.3633 0.5 9.8214L0.5 9C0.5 8.72386 0.723858 8.5 1 8.5Z" fill="white"/>
</svg>
