<svg xmlns="http://www.w3.org/2000/svg" width="24" height="24" fill="currentColor" viewBox="0 0 24 24">
  <path fill-rule="evenodd" d="M8.768 1.25H14a.75.75 0 0 1 .53.22l6 6c.141.14.22.331.22.53v9.232c0 .813 0 1.469-.043 2-.045.546-.14 1.026-.366 1.47a3.75 3.75 0 0 1-1.639 1.64c-.444.226-.924.32-1.47.365-.531.043-1.187.043-2 .043H8.768c-.813 0-1.469 0-2-.043-.546-.045-1.026-.14-1.47-.366a3.75 3.75 0 0 1-1.64-1.639c-.226-.444-.32-.924-.365-1.47-.043-.531-.043-1.187-.043-2V6.768c0-.813 0-1.469.043-2 .045-.546.14-1.026.366-1.47a3.75 3.75 0 0 1 1.639-1.64c.444-.226.924-.32 1.47-.365.531-.043 1.187-.043 2-.043ZM6.89 2.788c-.454.037-.715.107-.912.207a2.25 2.25 0 0 0-.984.984c-.1.197-.17.458-.207.912-.037.462-.038 1.057-.038 1.909v10.4c0 .852 0 1.447.038 1.91.037.453.107.714.207.912.216.423.56.767.984.983.197.1.458.17.912.207.462.037 1.057.038 1.909.038h6.4c.852 0 1.447 0 1.91-.038.453-.038.714-.107.912-.207.423-.216.767-.56.983-.983.1-.198.17-.459.207-.913.037-.462.038-1.057.038-1.909V8.75h-3.676c-.258 0-.494 0-.692-.016a1.774 1.774 0 0 1-.676-.175 1.75 1.75 0 0 1-.765-.764 1.775 1.775 0 0 1-.175-.677c-.016-.198-.016-.434-.016-.692V2.75H8.8c-.852 0-1.447 0-1.91.038Zm7.859 1.023 3.44 3.44H15.6c-.292 0-.467-.002-.596-.012a.626.626 0 0 1-.12-.018.25.25 0 0 1-.105-.104.638.638 0 0 1-.018-.121 8.375 8.375 0 0 1-.011-.596V3.81Z" clip-rule="evenodd"/>
  <path d="M16.114 15.989a.357.357 0 0 1-.264-.105.43.43 0 0 1-.123-.264.519.519 0 0 1 .091-.324l.964-1.54v.456l-.936-1.502a.54.54 0 0 1-.091-.33.43.43 0 0 1 .122-.264.358.358 0 0 1 .264-.105.37.37 0 0 1 .232.077.86.86 0 0 1 .2.248l.677 1.139h-.273l.682-1.14a.767.767 0 0 1 .2-.247.37.37 0 0 1 .232-.077.36.36 0 0 1 .268.105.38.38 0 0 1 .118.258.522.522 0 0 1-.09.336l-.941 1.502v-.457l.963 1.54c.073.11.103.219.091.325a.41.41 0 0 1-.118.264.363.363 0 0 1-.268.105.381.381 0 0 1-.227-.072.897.897 0 0 1-.205-.253l-.7-1.172h.264l-.696 1.172a.896.896 0 0 1-.204.254.388.388 0 0 1-.232.071ZM14.36 16c-.354 0-.659-.082-.913-.248a1.593 1.593 0 0 1-.586-.698 2.579 2.579 0 0 1-.2-1.057c0-.3.037-.574.113-.82.079-.245.191-.456.337-.632a1.46 1.46 0 0 1 .536-.402 1.72 1.72 0 0 1 1.145-.083c.152.037.285.094.4.171a.44.44 0 0 1 .178.21c.033.083.044.17.031.258a.56.56 0 0 1-.077.236.33.33 0 0 1-.163.143c-.067.022-.14.01-.219-.038a1.24 1.24 0 0 0-.272-.116.871.871 0 0 0-.278-.044.81.81 0 0 0-.472.132.77.77 0 0 0-.282.374 1.708 1.708 0 0 0-.096.611c0 .242.032.448.096.617a.804.804 0 0 0 .282.38.837.837 0 0 0 .472.126c.08 0 .164-.011.255-.033.09-.026.18-.064.268-.116.09-.048.171-.06.24-.038a.306.306 0 0 1 .174.132.528.528 0 0 1 .054.484.4.4 0 0 1-.163.203 1.232 1.232 0 0 1-.396.182 1.682 1.682 0 0 1-.463.066Zm-3.739 0c-.324 0-.609-.082-.854-.248a1.665 1.665 0 0 1-.573-.704c-.133-.3-.2-.65-.2-1.05 0-.301.038-.575.114-.82.079-.246.19-.457.332-.633a1.45 1.45 0 0 1 .518-.402c.2-.095.42-.143.663-.143.325 0 .608.082.85.248.246.165.437.398.573.698.136.297.205.648.205 1.051 0 .301-.04.574-.119.82a1.886 1.886 0 0 1-.331.638 1.463 1.463 0 0 1-.514.407c-.2.092-.421.138-.664.138Zm0-.847a.627.627 0 0 0 .41-.138.868.868 0 0 0 .258-.396c.061-.172.091-.38.091-.622 0-.363-.066-.645-.2-.847a.634.634 0 0 0-.559-.303.637.637 0 0 0-.409.138.83.83 0 0 0-.259.39c-.06.17-.09.377-.09.622 0 .363.066.648.2.853a.632.632 0 0 0 .558.303Zm-4.681.787c-.143 0-.252-.044-.328-.133-.073-.091-.11-.222-.11-.39v-2.834c0-.168.037-.297.11-.385a.4.4 0 0 1 .327-.138h.891c.558 0 .988.17 1.29.507.307.337.46.814.46 1.43 0 .308-.04.584-.118.826a1.736 1.736 0 0 1-.341.61 1.464 1.464 0 0 1-.55.38 2.018 2.018 0 0 1-.741.127h-.89Zm.4-.82h.435c.161 0 .299-.024.414-.072a.718.718 0 0 0 .291-.209.854.854 0 0 0 .173-.347c.04-.139.059-.304.059-.495 0-.381-.077-.662-.232-.842-.155-.183-.39-.275-.705-.275H6.34v2.24Z"/>
</svg>
