<svg xmlns="http://www.w3.org/2000/svg" width="24" height="24" fill="currentColor" viewBox="0 0 24 24">
  <path fill-rule="evenodd" d="M8.768 1.25H14a.75.75 0 0 1 .53.22l6 6c.141.14.22.331.22.53v9.232c0 .813 0 1.469-.043 2-.045.546-.14 1.026-.366 1.47a3.75 3.75 0 0 1-1.639 1.64c-.444.226-.924.32-1.47.365-.531.043-1.187.043-2 .043H8.768c-.813 0-1.469 0-2-.043-.546-.045-1.026-.14-1.47-.366a3.75 3.75 0 0 1-1.64-1.639c-.226-.444-.32-.924-.365-1.47-.043-.531-.043-1.187-.043-2V6.768c0-.813 0-1.469.043-2 .045-.546.14-1.026.366-1.47a3.75 3.75 0 0 1 1.639-1.64c.444-.226.924-.32 1.47-.365.531-.043 1.187-.043 2-.043ZM6.89 2.788c-.454.037-.715.107-.912.207a2.25 2.25 0 0 0-.984.984c-.1.197-.17.458-.207.912-.037.462-.038 1.057-.038 1.909v10.4c0 .852 0 1.447.038 1.91.037.453.107.714.207.912.216.423.56.767.984.983.197.1.458.17.912.207.462.037 1.057.038 1.909.038h6.4c.852 0 1.447 0 1.91-.038.453-.038.714-.107.912-.207.423-.216.767-.56.983-.983.1-.198.17-.459.207-.913.037-.462.038-1.057.038-1.909V8.75h-3.676c-.258 0-.494 0-.692-.016a1.774 1.774 0 0 1-.676-.175 1.75 1.75 0 0 1-.765-.764 1.775 1.775 0 0 1-.175-.677c-.016-.198-.016-.434-.016-.692V2.75H8.8c-.852 0-1.447 0-1.91.038Zm7.859 1.023 3.44 3.44H15.6c-.292 0-.467-.002-.596-.012a.626.626 0 0 1-.12-.018.25.25 0 0 1-.105-.104.638.638 0 0 1-.018-.121 8.375 8.375 0 0 1-.011-.596V3.81Zm.03 3.308v-.001.001Zm.1.101h.002-.001Z" clip-rule="evenodd"/>
  <path d="M17.667 16.353c.072.108.097.205.078.292a.387.387 0 0 1-.149.227.575.575 0 0 1-.273.119.604.604 0 0 1-.309-.027.504.504 0 0 1-.255-.205l-.44-.644a.37.37 0 0 0-.172-.14.754.754 0 0 0-.28-.044l.814-.276c.179 0 .329.031.452.092a.769.769 0 0 1 .315.287l.22.319Zm-1.794-.422c-.423 0-.795-.08-1.116-.243a1.84 1.84 0 0 1-.749-.692 1.996 1.996 0 0 1-.26-1.033c0-.296.049-.564.148-.806.102-.241.247-.449.433-.622.19-.173.416-.304.677-.394.262-.094.55-.14.867-.14.424 0 .795.08 1.111.242.321.163.57.391.749.687.178.292.267.636.267 1.033 0 .296-.052.564-.154.806-.1.241-.244.45-.434.627-.186.173-.41.306-.671.4a2.65 2.65 0 0 1-.867.135Zm0-.832c.21 0 .389-.046.535-.136a.88.88 0 0 0 .339-.389c.079-.17.119-.373.119-.611 0-.357-.088-.634-.262-.833-.174-.198-.418-.297-.73-.297a1.02 1.02 0 0 0-.535.135.848.848 0 0 0-.339.384c-.079.166-.118.37-.118.61 0 .358.087.637.261.84.174.197.418.296.73.296Zm-5.109.773c-.186 0-.329-.043-.428-.13-.095-.09-.142-.218-.142-.384v-2.785c0-.166.047-.292.142-.378.1-.09.242-.136.428-.136h2.014c.142 0 .25.033.32.098.072.065.107.159.107.281 0 .126-.035.224-.107.292-.07.065-.178.097-.32.097h-1.539v.725h1.408c.139 0 .243.032.315.097.075.065.113.16.113.287 0 .126-.038.222-.113.287-.072.064-.176.097-.315.097h-1.408v.784h1.539c.142 0 .25.034.32.103.072.064.107.158.107.28 0 .127-.035.223-.107.287-.07.065-.178.098-.32.098h-2.014Zm-4.218.048c-.174 0-.308-.043-.403-.13A.49.49 0 0 1 6 15.419v-2.856c0-.162.048-.286.143-.373.099-.086.235-.13.41-.13h1.46c.476 0 .842.107 1.1.32.26.209.391.5.391.876 0 .241-.059.452-.178.632a1.117 1.117 0 0 1-.505.411c-.217.094-.487.14-.807.14l.047-.097h.285a.858.858 0 0 1 .778.449l.297.487a.55.55 0 0 1 .09.308.315.315 0 0 1-.131.243c-.08.062-.196.092-.35.092a.747.747 0 0 1-.38-.086.79.79 0 0 1-.256-.27l-.54-.903a.367.367 0 0 0-.185-.163.596.596 0 0 0-.25-.048h-.326v.968a.501.501 0 0 1-.137.373c-.09.086-.227.13-.41.13Zm.547-2.173h.725c.21 0 .37-.038.48-.114.112-.076.167-.193.167-.351 0-.152-.055-.265-.166-.341-.111-.08-.272-.119-.481-.119h-.725v.925Z"/>
</svg>
