<svg xmlns="http://www.w3.org/2000/svg" width="24" height="24" fill="currentColor" viewBox="0 0 24 24">
  <path fill-rule="evenodd" d="M11.999 8.86a5.358 5.358 0 0 0-5.357 5.359c0 2.446.768 4.71 2.072 6.572a.75.75 0 0 1-1.228.86 12.91 12.91 0 0 1-2.344-7.432 6.858 6.858 0 1 1 13.713 0 .75.75 0 0 1-1.5 0c0-2.96-2.398-5.36-5.356-5.36Z" clip-rule="evenodd"/>
  <path fill-rule="evenodd" d="M11.999 8.86a5.358 5.358 0 0 0-5.357 5.359c0 2.446.768 4.71 2.072 6.572a.75.75 0 0 1-1.228.86 12.91 12.91 0 0 1-2.344-7.432 6.858 6.858 0 1 1 13.713 0 .75.75 0 0 1-1.5 0c0-2.96-2.398-5.36-5.356-5.36Z" clip-rule="evenodd"/>
  <path fill-rule="evenodd" d="M12 13.469a.75.75 0 0 1 .75.75c0 2.96 2.4 5.359 5.357 5.359.054 0 .096-.003.158-.007l.13-.008a.75.75 0 1 1 .083 1.498l-.062.003a4.836 4.836 0 0 1-.309.014 6.858 6.858 0 0 1-6.856-6.86.75.75 0 0 1 .75-.75Z" clip-rule="evenodd"/>
  <path fill-rule="evenodd" d="M12 13.469a.75.75 0 0 1 .75.75c0 2.96 2.4 5.359 5.357 5.359.054 0 .096-.003.158-.007l.13-.008a.75.75 0 1 1 .083 1.498l-.062.003a4.836 4.836 0 0 1-.309.014 6.858 6.858 0 0 1-6.856-6.86.75.75 0 0 1 .75-.75Z" clip-rule="evenodd"/>
  <path fill-rule="evenodd" d="M2.092 14.219c0-5.476 4.437-9.914 9.91-9.914s9.91 4.438 9.91 9.914a3.804 3.804 0 1 1-7.608 0 2.304 2.304 0 1 0-4.607 0 8.408 8.408 0 0 0 3.97 7.144.75.75 0 0 1-.794 1.273 9.908 9.908 0 0 1-4.676-8.417 3.804 3.804 0 1 1 7.607 0 2.304 2.304 0 1 0 4.608 0 8.412 8.412 0 0 0-8.41-8.414 8.412 8.412 0 0 0-8.41 8.414c0 1.072.12 2.117.34 3.125a.75.75 0 1 1-1.464.321 16.076 16.076 0 0 1-.376-3.446Z" clip-rule="evenodd"/>
  <path fill-rule="evenodd" d="M2.092 14.219c0-5.476 4.437-9.914 9.91-9.914s9.91 4.438 9.91 9.914a3.804 3.804 0 1 1-7.608 0 2.304 2.304 0 1 0-4.607 0 8.408 8.408 0 0 0 3.97 7.144.75.75 0 0 1-.794 1.273 9.908 9.908 0 0 1-4.676-8.417 3.804 3.804 0 1 1 7.607 0 2.304 2.304 0 1 0 4.608 0 8.412 8.412 0 0 0-8.41-8.414 8.412 8.412 0 0 0-8.41 8.414c0 1.072.12 2.117.34 3.125a.75.75 0 1 1-1.464.321 16.076 16.076 0 0 1-.376-3.446Z" clip-rule="evenodd"/>
  <path fill-rule="evenodd" d="M2.912 5.368A12.077 12.077 0 0 1 12 1.25c3.625 0 6.87 1.598 9.089 4.118a.75.75 0 0 1-1.126.99A10.577 10.577 0 0 0 12 2.75a10.577 10.577 0 0 0-7.962 3.609.75.75 0 0 1-1.126-.991Z" clip-rule="evenodd"/>
  <path fill-rule="evenodd" d="M2.912 5.368A12.077 12.077 0 0 1 12 1.25c3.625 0 6.87 1.598 9.089 4.118a.75.75 0 0 1-1.126.99A10.577 10.577 0 0 0 12 2.75a10.577 10.577 0 0 0-7.962 3.609.75.75 0 0 1-1.126-.991Z" clip-rule="evenodd"/>
</svg>
