<svg xmlns="http://www.w3.org/2000/svg" width="24" height="24" fill="currentColor" viewBox="0 0 24 24">
  <path fill-rule="evenodd" d="M10.171 3.818c-.17-.058-.376-.068-1.149-.068H5.2c-.572 0-.957 0-1.253.025-.287.023-.424.065-.514.111a1.25 1.25 0 0 0-.547.547c-.046.09-.088.227-.111.515-.024.295-.025.68-.025 1.252v.05h9.037l-.573-1.146c-.346-.69-.447-.871-.575-.997a1.25 1.25 0 0 0-.467-.289Zm3.293 2.432h3.768c.813 0 1.469 0 2 .043.546.045 1.026.14 1.47.366a3.75 3.75 0 0 1 1.64 1.639c.226.444.32.924.365 1.47.043.532.043 1.187.043 2v4.464c0 .813 0 1.469-.043 2-.045.546-.14 1.026-.366 1.47a3.75 3.75 0 0 1-1.639 1.64c-.444.226-.924.32-1.47.365-.531.043-1.187.043-2 .043H6.768c-.813 0-1.469 0-2-.043-.546-.045-1.026-.14-1.47-.366a3.75 3.75 0 0 1-1.64-1.638c-.226-.445-.32-.925-.365-1.471-.043-.531-.043-1.187-.043-2V6.17c0-.534 0-.98.03-1.345.03-.38.098-.736.27-1.073A2.75 2.75 0 0 1 2.752 2.55c.337-.172.693-.24 1.073-.27.365-.03.81-.03 1.345-.03h3.96c.611 0 1.091 0 1.53.15.385.133.736.35 1.027.635.332.325.546.755.819 1.302l.048.097.909 1.816Zm-.48 1.5H17.2c.852 0 1.447 0 1.91.038.453.038.714.107.912.207.423.216.767.56.983.984.1.197.17.458.207.912.037.462.038 1.057.038 1.91v4.4c0 .852 0 1.446-.038 1.908-.038.454-.107.715-.207.913a2.25 2.25 0 0 1-.983.983c-.198.1-.459.17-.913.207-.462.038-1.057.038-1.909.038H6.8c-.852 0-1.447 0-1.91-.038-.453-.037-.714-.107-.911-.207a2.25 2.25 0 0 1-.984-.983c-.1-.198-.17-.459-.207-.913-.037-.462-.038-1.056-.038-1.909V7.75h10.235Z" clip-rule="evenodd"/>
</svg>
