<svg xmlns="http://www.w3.org/2000/svg" width="24" height="24" fill="currentColor" viewBox="0 0 24 24">
  <path fill-rule="evenodd" d="M17.687 2.252a.75.75 0 0 1 1.06 0c4.004 4.003 4.004 10.493 0 14.496a10.206 10.206 0 0 1-5.997 2.926v1.576H17a.75.75 0 0 1 0 1.5H7a.75.75 0 0 1 0-1.5h4.25v-1.503a10.213 10.213 0 0 1-6.448-2.488l-1.61 1.61a.75.75 0 0 1-1.061-1.06l2.12-2.121.002-.001 1.973-1.974a6.75 6.75 0 1 1 1.06 1.06l-1.42 1.422A8.751 8.751 0 0 0 17.687 3.313a.75.75 0 0 1 0-1.06ZM11.5 4.25a5.25 5.25 0 1 0 0 10.5 5.25 5.25 0 0 0 0-10.5Z" clip-rule="evenodd"/>
</svg>
