<svg xmlns="http://www.w3.org/2000/svg" width="24" height="24" fill="currentColor" viewBox="0 0 24 24">
  <path fill-rule="evenodd" d="m12 4.339-.022.01-8.3 4.151.643.322a.74.74 0 0 1 .028.014l7.629 3.814.022.011.022-.01 3.3-1.65-3.657-1.83a.75.75 0 1 1 .67-1.342l4.558 2.28.034.016.073.036 2.651-1.325a.761.761 0 0 1 .028-.014l.644-.322-8.3-4.15L12 4.339Zm8.75 5.625 1.585-.793a.75.75 0 0 0 0-1.342l-9.642-4.82-.027-.015c-.097-.049-.257-.13-.436-.163a1.25 1.25 0 0 0-.46 0c-.179.033-.339.114-.436.163l-.027.014L1.665 7.83a.75.75 0 0 0 0 1.342l1.585.793v6.417c0 .294-.002.608.102.898.09.252.236.48.427.666.22.215.506.345.774.467l.068.031 6.4 2.933.048.022c.196.09.404.187.632.226.198.035.4.035.598 0 .228-.04.436-.136.632-.226l.048-.022 6.4-2.933.068-.03c.268-.123.553-.253.774-.468a1.75 1.75 0 0 0 .427-.666c.104-.29.103-.604.102-.898V9.964Zm-1.515 6.812.015-6.013-.375.138-.375.188-.75.374V14.5a.75.75 0 0 1-1.5 0v-2.286l-3.557 1.778-.027.014c-.097.05-.257.13-.436.164a1.25 1.25 0 0 1-.46 0 1.647 1.647 0 0 1-.436-.164l-.027-.014-6.557-3.278v5.593c0 .195 0 .307.006.39a.507.507 0 0 0 .009.08.25.25 0 0 0 .06.093.514.514 0 0 0 .068.041c.074.04.175.087.353.168l6.4 2.934c.129.059.201.092.257.114.05.02.06.02.054.02a.25.25 0 0 0 .086 0m-7.22-3.278.002.001h-.001Zm-.058-.091v-.002.002Zm14.47-.002.015-6.013v5.544c0 .195 0 .307-.006.39a.514.514 0 0 1-.009.08Z" clip-rule="evenodd"/>
</svg>
