<svg xmlns="http://www.w3.org/2000/svg" width="24" height="24" fill="currentColor" viewBox="0 0 24 24">
  <path fill-rule="evenodd" d="M1.25 9.48c0-3.414 2.585-7.23 6.639-7.23 1.863 0 3.209.768 4.111 1.595a5.948 5.948 0 0 1 4.111-1.595c4.054 0 6.639 3.816 6.639 7.23 0 1.78-.69 3.436-1.665 4.89-.975 1.455-2.264 2.748-3.535 3.819a30.263 30.263 0 0 1-3.518 2.54c-.485.3-.896.534-1.195.696a9.54 9.54 0 0 1-.369.19 2.736 2.736 0 0 1-.211.091.853.853 0 0 1-.071.021.775.775 0 0 1-.371 0 .857.857 0 0 1-.15-.05 2.736 2.736 0 0 1-.133-.062 9.54 9.54 0 0 1-.369-.19c-.3-.162-.71-.397-1.195-.697a30.262 30.262 0 0 1-3.518-2.54c-1.27-1.07-2.56-2.363-3.535-3.818-.976-1.454-1.665-3.11-1.665-4.89Z" clip-rule="evenodd"/>
</svg>
