<svg xmlns="http://www.w3.org/2000/svg" width="24" height="24" fill="currentColor" viewBox="0 0 24 24">
  <path fill-rule="evenodd" d="M7.895 1.996a.75.75 0 0 1 .53.918l-.195.73c4.408-1.714 9.527-.005 11.965 4.217 2.693 4.664 1.095 10.627-3.569 13.32C11.963 23.871 6 22.274 3.309 17.61a9.746 9.746 0 0 1-.045-9.673.75.75 0 0 1 1.306.737 8.25 8.25 0 1 0 4.029-3.563l1.297.348a.75.75 0 0 1-.389 1.448l-2.732-.732a.75.75 0 0 1-.53-.919l.732-2.731a.75.75 0 0 1 .919-.53Zm3.582 6.254a.75.75 0 0 1 .75.75v4.6l2.666 1.777a.75.75 0 0 1-.833 1.248l-3-2a.75.75 0 0 1-.334-.624V9a.75.75 0 0 1 .75-.75Z" clip-rule="evenodd"/>
</svg>
