<svg xmlns="http://www.w3.org/2000/svg" width="24" height="24" fill="currentColor" viewBox="0 0 24 24">
  <path fill-rule="evenodd" d="M10.53 4.04 4.75 8.375V17.8c0 .572 0 .957.025 1.252.023.288.065.425.111.515.12.236.311.427.547.547.09.046.227.088.515.111.295.024.68.025 1.252.025h1.05v-6.676c0-.258 0-.494.016-.692a1.77 1.77 0 0 1 .175-.676 1.75 1.75 0 0 1 .765-.765c.23-.118.463-.158.676-.175.198-.016.434-.016.692-.016h2.852c.258 0 .494 0 .692.016.213.018.446.057.676.175.33.167.598.435.765.764.118.23.158.464.175.677.016.198.016.434.016.692v6.676h1.05c.572 0 .957 0 1.253-.025.287-.023.424-.065.514-.111a1.25 1.25 0 0 0 .547-.547c.046-.09.088-.227.111-.515.024-.295.025-.68.025-1.252V8.375L13.47 4.04c-.742-.556-.95-.696-1.152-.749a1.25 1.25 0 0 0-.636 0c-.202.053-.41.193-1.152.749ZM20.75 9.5v8.33c0 .535 0 .98-.03 1.345-.03.38-.098.736-.27 1.073a2.75 2.75 0 0 1-1.201 1.202c-.338.172-.694.24-1.074.27-.364.03-.81.03-1.345.03H7.17c-.535 0-.98 0-1.345-.03-.38-.03-.736-.098-1.073-.27a2.75 2.75 0 0 1-1.202-1.2c-.172-.338-.24-.694-.27-1.074-.03-.365-.03-.81-.03-1.345V9.5l-.8.6a.75.75 0 1 1-.9-1.2l8.08-6.06.007-.006.098-.073.2-.15.655-.491.07-.052c.27-.204.558-.422.895-.51a1.75 1.75 0 0 1 .89 0c.337.088.625.306.896.51l.069.052.656.492.199.149.1.076c.002 0 .004.002.005.003l6.08 4.56 2 1.5a.75.75 0 1 1-.9 1.2l-.8-.6Zm-11 10.75h4.5V13.6c0-.292 0-.467-.011-.596a.618.618 0 0 0-.018-.12.25.25 0 0 0-.104-.105.638.638 0 0 0-.121-.018 8.377 8.377 0 0 0-.596-.011h-2.8c-.292 0-.466 0-.596.011a.638.638 0 0 0-.12.018.25.25 0 0 0-.105.104.626.626 0 0 0-.018.121c-.01.13-.01.304-.01.596v6.65Zm.03-7.37v.002-.001Zm.1-.1h.002-.001Zm4.24 0h-.002.001Zm.1.1v.002-.001Z" clip-rule="evenodd"/>
</svg>
