<svg xmlns="http://www.w3.org/2000/svg" width="24" height="24" fill="currentColor" viewBox="0 0 24 24">
  <path fill-rule="evenodd" d="M12 2.75a9.25 9.25 0 0 0-6.054 16.244l8.41-8.412c.183-.182.35-.349.501-.477.163-.139.356-.275.602-.355a1.75 1.75 0 0 1 1.082 0c.246.08.439.216.602.355.15.128.318.295.5.477l3.395 3.395A9.25 9.25 0 0 0 12 2.75Zm8.528 12.839-3.927-3.927a8.31 8.31 0 0 0-.43-.414.633.633 0 0 0-.097-.073.25.25 0 0 0-.148 0 .633.633 0 0 0-.098.073 8.31 8.31 0 0 0-.429.414L7.17 19.89A9.207 9.207 0 0 0 12 21.25a9.253 9.253 0 0 0 8.528-5.661Zm-14.97 5.017A10.702 10.702 0 0 0 12 22.75c5.937 0 10.75-4.813 10.75-10.75S17.937 1.25 12 1.25 1.25 6.063 1.25 12a10.734 10.734 0 0 0 4.307 8.606ZM8.5 7.25a1.25 1.25 0 1 0 0 2.5 1.25 1.25 0 0 0 0-2.5ZM5.75 8.5a2.75 2.75 0 1 1 5.5 0 2.75 2.75 0 0 1-5.5 0Z" clip-rule="evenodd"/>
</svg>
