<svg xmlns="http://www.w3.org/2000/svg" width="24" height="24" fill="currentColor" viewBox="0 0 24 24">
  <path fill-rule="evenodd" d="M8.456 1.25h5.793a.75.75 0 0 1 .703 1.013l-1.87 4.987h6.065c.27 0 .521 0 .72.018.185.016.502.057.762.277.304.256.467.641.441 1.037-.022.34-.213.597-.33.741a8.291 8.291 0 0 1-.486.53L8.039 22.52a.75.75 0 0 1-1.258-.736l2.71-9.034H4.267c-.19 0-.382 0-.54-.014a1.289 1.289 0 0 1-.635-.212 1.25 1.25 0 0 1-.52-.841c-.04-.274.035-.51.095-.663a6.23 6.23 0 0 1 .229-.49l4.212-8.423.016-.034c.059-.119.155-.314.31-.466a1.25 1.25 0 0 1 .467-.289c.205-.07.423-.07.555-.068Zm.007 1.5-.014.028-4.2 8.4-.036.072H10.5a.75.75 0 0 1 .719.965l-2.111 7.038L19.153 8.835l.081-.085H12a.75.75 0 0 1-.702-1.013l1.87-4.987H8.463Z" clip-rule="evenodd"/>
</svg>
