<svg xmlns="http://www.w3.org/2000/svg" width="24" height="24" fill="currentColor" viewBox="0 0 24 24">
  <path fill-rule="evenodd" d="M7.768 2.25h8.464c.813 0 1.469 0 2 .043.546.045 1.026.14 1.47.366a3.75 3.75 0 0 1 1.64 1.639c.226.444.32.924.365 1.47.043.531.043 1.187.043 2v8.464c0 .813 0 1.469-.043 2-.045.546-.14 1.026-.366 1.47a3.75 3.75 0 0 1-1.639 1.64c-.444.226-.924.32-1.47.365-.531.043-1.187.043-2 .043H7.768c-.813 0-1.469 0-2-.043-.546-.045-1.026-.14-1.47-.366a3.75 3.75 0 0 1-1.64-1.639c-.226-.444-.32-.924-.365-1.47a16.49 16.49 0 0 1-.042-1.277l-.001-.723V7.768c0-.813 0-1.469.043-2 .045-.546.14-1.026.366-1.47a3.75 3.75 0 0 1 1.639-1.64c.444-.226.924-.32 1.47-.365.531-.043 1.187-.043 2-.043ZM3.755 17.306c.005.31.015.573.033.803.037.454.107.715.207.912.216.424.56.768.984.984.197.1.458.17.912.207.462.037 1.057.038 1.909.038h8.4c.852 0 1.447 0 1.91-.038.453-.038.714-.107.912-.207.423-.216.767-.56.983-.983.1-.198.17-.459.207-.913.037-.462.038-1.057.038-1.909V7.8c0-.852 0-1.447-.038-1.91-.038-.453-.107-.714-.207-.911a2.25 2.25 0 0 0-.983-.984c-.198-.1-.459-.17-.913-.207-.462-.037-1.057-.038-1.909-.038H7.8c-.852 0-1.447 0-1.91.038-.453.037-.714.107-.911.207a2.25 2.25 0 0 0-.984.984c-.1.197-.17.458-.207.912-.037.462-.038 1.057-.038 1.909v7.39l3.168-3.169c.087-.086.18-.18.268-.255.1-.084.239-.186.428-.248a1.25 1.25 0 0 1 .772 0c.189.062.329.164.428.248.088.075.181.169.268.255l1.883 1.883.035.035.035-.035L15.19 9.75H13a.75.75 0 0 1 0-1.5h4a.75.75 0 0 1 .75.75v4a.75.75 0 0 1-1.5 0v-2.19l-4.168 4.169c-.087.086-.18.18-.268.255a1.26 1.26 0 0 1-.428.248 1.25 1.25 0 0 1-.772 0 1.26 1.26 0 0 1-.428-.248 4.757 4.757 0 0 1-.268-.255l-1.883-1.883L8 13.061l-.035.035-4.21 4.21Z" clip-rule="evenodd"/>
</svg>
