<svg xmlns="http://www.w3.org/2000/svg" width="24" height="24" fill="currentColor" viewBox="0 0 24 24">
  <path fill-rule="evenodd" d="M9 1.25a.75.75 0 0 1 .75.75v2a.75.75 0 0 1-1.5 0V2A.75.75 0 0 1 9 1.25Zm4.591 2.441a4.75 4.75 0 1 1 6.717 6.718l-2.12 2.121a.75.75 0 1 1-1.061-1.06l2.12-2.122a3.25 3.25 0 0 0-4.595-4.596L12.53 6.873a.75.75 0 0 1-1.06-1.06l2.12-2.123ZM2.97 2.97a.75.75 0 0 1 1.06 0l1.415 1.414a.75.75 0 1 1-1.061 1.06L2.97 4.03a.75.75 0 0 1 0-1.06Zm13.06 5a.75.75 0 0 1 0 1.06l-7 7a.75.75 0 1 1-1.06-1.06l7-7a.75.75 0 0 1 1.06 0ZM1.25 9A.75.75 0 0 1 2 8.25h2a.75.75 0 0 1 0 1.5H2A.75.75 0 0 1 1.25 9Zm5.624 2.47a.75.75 0 0 1 0 1.06l-2.122 2.122a3.25 3.25 0 0 0 4.596 4.596l2.122-2.122a.75.75 0 0 1 1.06 1.061l-2.121 2.121a4.75 4.75 0 1 1-6.717-6.717l2.12-2.121a.75.75 0 0 1 1.062 0ZM19.25 15a.75.75 0 0 1 .75-.75h2a.75.75 0 0 1 0 1.5h-2a.75.75 0 0 1-.75-.75Zm-.695 3.555a.75.75 0 0 1 1.061 0l1.414 1.415a.75.75 0 1 1-1.06 1.06l-1.415-1.414a.75.75 0 0 1 0-1.06ZM15 19.25a.75.75 0 0 1 .75.75v2a.75.75 0 0 1-1.5 0v-2a.75.75 0 0 1 .75-.75Z" clip-rule="evenodd"/>
</svg>
