<svg xmlns="http://www.w3.org/2000/svg" width="24" height="24" fill="currentColor" viewBox="0 0 24 24">
  <path fill-rule="evenodd" d="M12.177 3.691a5.75 5.75 0 0 1 8.132 8.132l-1.414 1.414a.75.75 0 1 1-1.06-1.06l1.413-1.415a4.25 4.25 0 0 0-6.01-6.01l-1.414 1.414a.75.75 0 0 1-1.061-1.06l1.414-1.415Zm3.854 4.279a.75.75 0 0 1 0 1.06l-7 7a.75.75 0 1 1-1.06-1.06l7-7a.75.75 0 0 1 1.06 0Zm-9.864 2.792a.75.75 0 0 1 0 1.061l-1.414 1.414a4.25 4.25 0 1 0 6.01 6.01l1.414-1.413a.75.75 0 0 1 1.06 1.06l-1.413 1.415a5.75 5.75 0 0 1-8.132-8.132l1.414-1.415a.75.75 0 0 1 1.06 0Z" clip-rule="evenodd"/>
</svg>
