<svg xmlns="http://www.w3.org/2000/svg" width="24" height="24" fill="currentColor" viewBox="0 0 24 24">
  <path fill-rule="evenodd" d="M2.25 6a1.75 1.75 0 1 1 3.5 0 1.75 1.75 0 0 1-3.5 0Zm6 0A.75.75 0 0 1 9 5.25h12a.75.75 0 0 1 0 1.5H9A.75.75 0 0 1 8.25 6Zm-6 6a1.75 1.75 0 1 1 3.5 0 1.75 1.75 0 0 1-3.5 0Zm6 0a.75.75 0 0 1 .75-.75h12a.75.75 0 0 1 0 1.5H9a.75.75 0 0 1-.75-.75Zm-6 6a1.75 1.75 0 1 1 3.5 0 1.75 1.75 0 0 1-3.5 0Zm6 0a.75.75 0 0 1 .75-.75h12a.75.75 0 0 1 0 1.5H9a.75.75 0 0 1-.75-.75Z" clip-rule="evenodd"/>
</svg>
