<svg xmlns="http://www.w3.org/2000/svg" width="24" height="24" fill="currentColor" viewBox="0 0 24 24">
  <path fill-rule="evenodd" d="m8.052 2.807 1.05.116.035.004c.26.03.436.049.594.08a3.75 3.75 0 0 1 3.005 3.358c.014.16.014.338.014.599V7a.75.75 0 0 1-1.5 0c0-.31 0-.42-.008-.507a2.25 2.25 0 0 0-1.803-2.015 6.853 6.853 0 0 0-.503-.064l-1.022-.113c-.778-.087-1.322-.147-1.75-.164-.42-.016-.665.013-.85.072a2.25 2.25 0 0 0-1.368 1.225c-.08.177-.135.417-.165.837-.03.426-.031.974-.031 1.757v7.944c0 .783 0 1.33.03 1.757.03.42.087.66.166.838a2.25 2.25 0 0 0 1.368 1.224c.185.06.43.089.85.072.428-.017.972-.077 1.75-.163l1.022-.114a6.94 6.94 0 0 0 .503-.064 2.25 2.25 0 0 0 1.803-2.015A6.9 6.9 0 0 0 11.25 17a.75.75 0 0 1 1.5 0v.037c0 .26 0 .438-.014.599a3.75 3.75 0 0 1-3.005 3.357 7.327 7.327 0 0 1-.594.08l-1.085.12c-.744.083-1.341.15-1.828.169-.498.02-.942-.006-1.367-.142a3.75 3.75 0 0 1-2.28-2.041c-.182-.407-.257-.846-.292-1.343C2.25 17.35 2.25 16.749 2.25 16V8c0-.748 0-1.35.035-1.835.035-.498.11-.936.291-1.343A3.75 3.75 0 0 1 4.857 2.78c.425-.136.869-.161 1.367-.142.487.02 1.084.086 1.828.169ZM15.47 6.47a.75.75 0 0 1 1.06 0l5 5a.75.75 0 0 1 0 1.06l-5 5a.75.75 0 1 1-1.06-1.06l3.72-3.72H9a.75.75 0 0 1 0-1.5h10.19l-3.72-3.72a.75.75 0 0 1 0-1.06Z" clip-rule="evenodd"/>
</svg>
