<svg xmlns="http://www.w3.org/2000/svg" width="24" height="24" fill="currentColor" viewBox="0 0 24 24">
  <path fill-rule="evenodd" d="M17.803 3.229c-.52.024-1.187.112-2.138.24l-6.592.878a6.803 6.803 0 0 0-.596.091 2.25 2.25 0 0 0-1.715 1.959A6.663 6.663 0 0 0 6.75 7a.75.75 0 0 1-1.5 0v-.043c0-.31 0-.522.02-.713A3.75 3.75 0 0 1 8.128 2.98c.187-.045.397-.073.704-.114l.043-.006 6.626-.883c.909-.122 1.639-.219 2.231-.247.608-.028 1.147.01 1.654.212.799.318 1.464.9 1.885 1.65.267.476.376 1.006.428 1.611.051.591.051 1.328.051 2.245v9.104c0 .917 0 1.654-.05 2.245-.053.605-.162 1.135-.429 1.61a3.75 3.75 0 0 1-1.885 1.651c-.507.202-1.046.24-1.654.212-.592-.028-1.322-.125-2.231-.247l-6.626-.883-.043-.006a7.27 7.27 0 0 1-.704-.113 3.75 3.75 0 0 1-2.858-3.265c-.02-.191-.02-.403-.02-.713V17a.75.75 0 0 1 1.5 0c0 .37.001.498.012.603a2.25 2.25 0 0 0 1.715 1.959c.102.024.23.042.596.091l6.592.88c.951.126 1.617.214 2.138.239.513.024.807-.02 1.028-.108.48-.19.88-.54 1.132-.99.116-.208.198-.494.242-1.005.044-.52.045-1.192.045-2.151V7.483c0-.96 0-1.632-.045-2.151-.044-.512-.126-.798-.242-1.006a2.25 2.25 0 0 0-1.132-.99c-.221-.088-.515-.132-1.028-.107Zm-6.333 4.24a.75.75 0 0 1 1.06 0l4 4a.75.75 0 0 1 0 1.061l-4 4a.75.75 0 1 1-1.06-1.06l2.72-2.72H3a.75.75 0 0 1 0-1.5h11.19l-2.72-2.72a.75.75 0 0 1 0-1.06Z" clip-rule="evenodd"/>
</svg>
