<svg xmlns="http://www.w3.org/2000/svg" width="24" height="24" fill="currentColor" viewBox="0 0 24 24">
  <path fill-rule="evenodd" d="M15.01 1.25a.75.75 0 0 1 .75.75v1.5a.75.75 0 0 1-1.5 0V2a.75.75 0 0 1 .75-.75ZM9.42 3.47a.75.75 0 0 1 1.06 0l1.06 1.06a.75.75 0 0 1-1.06 1.061l-1.06-1.06a.75.75 0 0 1 0-1.061Zm11.12 0a.75.75 0 0 1 0 1.06l-1.06 1.061a.75.75 0 0 1-1.06-1.06l1.06-1.061a.75.75 0 0 1 1.06 0Zm-7.58 3.78a1.75 1.75 0 0 1 1.08 0c.247.08.44.216.603.355.15.128.318.295.5.477l.774.775c.182.182.35.35.478.5.138.163.275.356.355.602.114.352.114.73 0 1.082-.08.246-.217.439-.355.602a9.39 9.39 0 0 1-.478.5l-2.386 2.387-.001.001-6.887 6.886c-.182.183-.35.35-.5.478a1.773 1.773 0 0 1-.602.355 1.75 1.75 0 0 1-1.082 0 1.773 1.773 0 0 1-.602-.355 9.057 9.057 0 0 1-.5-.477l-.019-.019-.756-.756a9.037 9.037 0 0 1-.477-.5 1.774 1.774 0 0 1-.355-.602 1.75 1.75 0 0 1 0-1.082c.08-.246.216-.439.355-.602.128-.15.295-.318.477-.5l9.275-9.274c.182-.183.349-.35.5-.478.163-.139.356-.275.602-.355ZM10 12.06 3.662 18.4c-.207.207-.33.33-.414.43a.631.631 0 0 0-.073.097.25.25 0 0 0 0 .148.631.631 0 0 0 .073.098c.084.099.207.222.414.429l.737.737c.207.207.33.33.429.414a.63.63 0 0 0 .098.073.25.25 0 0 0 .148 0 .637.637 0 0 0 .098-.073c.099-.084.222-.207.429-.414L11.939 14 10 12.06Zm3 .88L11.06 11l1.84-1.838c.207-.207.33-.33.429-.414a.624.624 0 0 1 .098-.073.25.25 0 0 1 .148 0 .623.623 0 0 1 .098.073c.098.084.222.207.429.414l.737.737c.207.207.33.33.414.43a.67.67 0 0 1 .072.097c.015.048.015.1 0 .148a.625.625 0 0 1-.072.098 8.267 8.267 0 0 1-.414.429L13 12.939Zm.428-4.266h-.001.001ZM19.76 9a.75.75 0 0 1 .75-.75h1.5a.75.75 0 0 1 0 1.5h-1.5a.75.75 0 0 1-.75-.75Zm-1.34 3.47a.75.75 0 0 1 1.06 0l1.06 1.06a.75.75 0 0 1-1.06 1.061l-1.06-1.06a.75.75 0 0 1 0-1.061Z" clip-rule="evenodd"/>
</svg>
