<svg xmlns="http://www.w3.org/2000/svg" width="24" height="24" fill="currentColor" viewBox="0 0 24 24">
  <path fill-rule="evenodd" d="M6.768 3.25h10.464c.813 0 1.469 0 2 .043.546.045 1.026.14 1.47.366a3.75 3.75 0 0 1 1.64 1.639c.222.437.317.908.363 1.444a.75.75 0 0 1 .026.427c.02.451.02.98.02 1.599v6.464c0 .813 0 1.469-.044 2-.045.546-.14 1.026-.366 1.47a3.75 3.75 0 0 1-1.639 1.64c-.444.226-.924.32-1.47.365-.531.043-1.187.043-2 .043H6.768c-.813 0-1.468 0-2-.043-.546-.045-1.026-.14-1.47-.366a3.75 3.75 0 0 1-1.64-1.639c-.226-.444-.32-.924-.365-1.47-.043-.531-.043-1.187-.043-2V8.768c0-.62 0-1.148.02-1.6a.75.75 0 0 1 .026-.426c.045-.536.14-1.007.363-1.444a3.75 3.75 0 0 1 1.639-1.64c.444-.226.924-.32 1.47-.365.532-.043 1.187-.043 2-.043ZM2.75 8.44v6.76c0 .852 0 1.447.038 1.91.038.453.107.714.207.912.216.423.56.767.984.983.197.1.458.17.912.207.462.037 1.057.038 1.91.038h10.4c.851 0 1.446 0 1.908-.038.454-.038.715-.107.912-.207a2.25 2.25 0 0 0 .984-.983c.1-.198.17-.459.207-.913.038-.462.038-1.057.038-1.909V8.44l-6.985 4.89-.1.07c-.562.394-1.002.703-1.5.827a2.75 2.75 0 0 1-1.33 0c-.498-.124-.938-.433-1.5-.827l-.1-.07L2.75 8.44Zm18.437-1.787-7.782 5.448c-.712.498-.91.623-1.103.67a1.25 1.25 0 0 1-.604 0c-.192-.047-.39-.172-1.103-.67L2.813 6.653c.04-.312.1-.514.182-.674a2.25 2.25 0 0 1 .984-.984c.197-.1.458-.17.912-.207.462-.037 1.057-.038 1.91-.038h10.4c.851 0 1.446 0 1.908.038.454.037.715.107.912.207.424.216.768.56.984.984.082.16.142.362.182.674Z" clip-rule="evenodd"/>
</svg>
