<svg xmlns="http://www.w3.org/2000/svg" width="24" height="24" fill="currentColor" viewBox="0 0 24 24">
  <path fill-rule="evenodd" d="M11.634 2.345a.75.75 0 0 1 .76.016l5.34 3.287c.174.107.345.212.478.312.135.101.333.269.443.535a1.25 1.25 0 0 1-.03 1.018c-.124.26-.332.415-.473.509a6.377 6.377 0 0 1-.494.283l-4.908 2.643V17a.75.75 0 0 1-1.5 0V3a.75.75 0 0 1 .384-.655Zm1.116 6.9 4.172-2.247.076-.041-.073-.046-4.175-2.569v4.902ZM8.736 13.23a.75.75 0 0 1-.591.88c-1.703.335-3.1.877-4.05 1.517-.967.652-1.345 1.312-1.345 1.873 0 .764.724 1.705 2.487 2.498C6.929 20.76 9.32 21.25 12 21.25c2.68 0 5.071-.49 6.763-1.252 1.763-.793 2.487-1.734 2.487-2.498 0-.56-.378-1.22-1.345-1.873-.95-.64-2.347-1.182-4.05-1.517a.75.75 0 1 1 .29-1.471c1.829.36 3.432.958 4.599 1.745 1.15.776 2.006 1.831 2.006 3.116 0 1.722-1.515 3.03-3.371 3.866-1.927.867-4.537 1.384-7.379 1.384-2.842 0-5.452-.517-7.379-1.384C2.765 20.53 1.25 19.222 1.25 17.5c0-1.285.856-2.34 2.006-3.116 1.167-.787 2.77-1.386 4.6-1.745a.75.75 0 0 1 .88.59Z" clip-rule="evenodd"/>
</svg>
