<svg xmlns="http://www.w3.org/2000/svg" width="24" height="24" fill="currentColor" viewBox="0 0 24 24">
  <path d="M4.994 13.437c.066.25.176.35.374.35s.308-.121.308-.35V9.139h1.26v4.298a1.353 1.353 0 0 1-.395 1.174 1.71 1.71 0 0 1-1.166.387 1.582 1.582 0 0 1-1.092-.387 2.212 2.212 0 0 1-.55-1.174l-.776-2.865c-.066-.251-.176-.351-.374-.351s-.308.121-.308.35v4.298h-1.26v-4.297a1.353 1.353 0 0 1 .396-1.175 1.725 1.725 0 0 1 1.165-.387c.404-.014.797.125 1.1.387.293.331.482.74.541 1.175l.777 2.865Zm16.702 1.433-1.466-4.456a.383.383 0 0 0-.051-.122.241.241 0 0 0-.176-.072.232.232 0 0 0-.169.072.38.38 0 0 0-.051.122l-1.466 4.455h-1.29L18.603 10a1.43 1.43 0 0 1 .352-.617 1.375 1.375 0 0 1 1.04-.372 1.422 1.422 0 0 1 1.048.372c.164.177.284.388.352.617L23 14.869h-1.304Zm-6.456 0a2.021 2.021 0 0 0 1.553-.48c.175-.164.313-.363.402-.583.09-.22.13-.456.118-.693a1.711 1.711 0 0 0-.469-1.225 2.065 2.065 0 0 0-1.576-.473h-1.062c-.403 0-.564-.05-.689-.171a.464.464 0 0 1-.124-.351.551.551 0 0 1 .139-.401.648.648 0 0 1 .469-.13h3.026V9.14h-2.77a2.022 2.022 0 0 0-1.553.48 1.646 1.646 0 0 0-.403.582c-.09.22-.13.456-.118.693a1.71 1.71 0 0 0 .47 1.225 2.068 2.068 0 0 0 1.576.473h1.04c.403 0 .564.05.688.171a.463.463 0 0 1 .125.351.55.55 0 0 1-.14.401.637.637 0 0 1-.468.13h-3.122L11.157 9.99a1.424 1.424 0 0 0-.351-.616 1.375 1.375 0 0 0-1.041-.372 1.422 1.422 0 0 0-1.048.372 1.567 1.567 0 0 0-.352.616l-1.59 4.878H8.08l1.466-4.455a.27.27 0 0 1 .059-.122.226.226 0 0 1 .168-.073.232.232 0 0 1 .169.073.382.382 0 0 1 .051.122l1.466 4.455h3.781Z"/>
</svg>
