<svg xmlns="http://www.w3.org/2000/svg" width="24" height="24" fill="currentColor" viewBox="0 0 24 24">
  <path d="M20.839 14.96c-.209 0-.368-.058-.478-.173-.11-.115-.165-.278-.165-.486V9.659c0-.208.055-.37.165-.486.11-.115.27-.173.478-.173.203 0 .36.058.47.173.11.116.165.278.165.486v4.642c0 .208-.055.37-.165.486-.105.115-.261.173-.47.173Zm-5.707-.074c-.214 0-.38-.058-.495-.173-.115-.116-.173-.28-.173-.495V9.742c0-.215.058-.38.173-.495.116-.115.28-.173.495-.173h1.995c.412 0 .764.06 1.055.181.291.121.511.294.66.52.154.225.23.494.23.808 0 .346-.098.64-.296.882-.198.242-.47.404-.816.486v-.132c.4.072.711.23.931.478.225.242.338.558.338.948 0 .517-.178.92-.536 1.212-.357.286-.849.429-1.475.429h-2.086Zm.552-.948h1.36c.33 0 .572-.064.726-.19.154-.132.23-.324.23-.577 0-.253-.076-.442-.23-.569-.154-.126-.396-.19-.725-.19h-1.36v1.526Zm0-2.473h1.22c.32 0 .555-.06.71-.182.153-.12.23-.302.23-.544 0-.236-.077-.415-.23-.536-.155-.12-.39-.181-.71-.181h-1.22v1.443ZM9.4 14.886c-.214 0-.38-.058-.495-.173-.115-.116-.173-.28-.173-.495V9.742c0-.215.058-.38.173-.495.116-.115.28-.173.495-.173h1.995c.412 0 .764.06 1.055.181.291.121.511.294.66.52.154.225.23.494.23.808 0 .346-.098.64-.296.882-.198.242-.47.404-.816.486v-.132c.4.072.711.23.931.478.225.242.338.558.338.948 0 .517-.178.92-.536 1.212-.357.286-.849.429-1.475.429H9.4Zm.552-.948h1.36c.33 0 .572-.064.726-.19.154-.132.23-.324.23-.577 0-.253-.076-.442-.23-.569-.154-.126-.396-.19-.726-.19h-1.36v1.526Zm0-2.473h1.22c.32 0 .555-.06.71-.182.153-.12.23-.302.23-.544 0-.236-.077-.415-.23-.536-.155-.12-.39-.181-.71-.181h-1.22v1.443ZM3.12 14.96c-.193 0-.341-.052-.446-.157-.099-.11-.148-.263-.148-.461V9.643c0-.209.05-.368.148-.478A.542.542 0 0 1 3.086 9c.149 0 .261.03.338.09.083.056.176.15.28.281l2.894 3.685h-.222V9.61c0-.192.05-.34.148-.445.104-.11.253-.165.445-.165s.338.055.437.165c.104.104.157.253.157.445v4.757a.652.652 0 0 1-.14.436.483.483 0 0 1-.38.157.674.674 0 0 1-.37-.09 1.418 1.418 0 0 1-.29-.29L3.5 10.897h.214v3.446c0 .198-.05.351-.148.461-.1.105-.248.157-.446.157Z"/>
</svg>
