<svg xmlns="http://www.w3.org/2000/svg" width="24" height="24" fill="currentColor" viewBox="0 0 24 24">
  <path fill-rule="evenodd" d="M11.648 1.43a1.75 1.75 0 0 1 .705 0c.267.055.507.19.732.315l.056.031 7.4 4.111.06.033c.238.132.492.272.686.483a1.749 1.749 0 0 1 .375.636c.09.272.089.563.088.834v8.254c.001.272.002.562-.088.834a1.752 1.752 0 0 1-.375.637c-.194.21-.448.35-.686.482l-.06.033-7.4 4.111-.056.031c-.225.126-.465.26-.732.315a1.745 1.745 0 0 1-.705 0c-.267-.055-.508-.189-.733-.315l-.056-.031-7.4-4.111-.06-.033c-.238-.131-.492-.272-.686-.482a1.75 1.75 0 0 1-.374-.637c-.09-.272-.09-.562-.089-.834V7.873c0-.271-.001-.562.089-.834a1.75 1.75 0 0 1 .374-.636c.194-.21.448-.351.686-.483l.06-.033 3.665-2.036a.724.724 0 0 1 .022-.012l3.713-2.063.056-.031c.225-.126.466-.26.733-.315ZM7.5 5.358 4.545 7 12 11.142 14.956 9.5 7.5 5.358Zm9 3.284L9.045 4.5l2.542-1.413c.15-.082.234-.13.3-.16a.378.378 0 0 1 .163-.028L19.456 7m-2.604 3.162a.636.636 0 0 0 .026-.014l3.372-1.873v7.784c0 .18 0 .282-.005.36a.482.482 0 0 1-.008.072.25.25 0 0 1-.053.09.495.495 0 0 1-.06.042 6.85 6.85 0 0 1-.311.179l-7.063 3.924V12.44l4.102-2.279Zm-5.602 2.28-7.5-4.167v7.784c0 .18 0 .282.005.36a.495.495 0 0 0 .008.072.25.25 0 0 0 .053.09c.004.003.02.016.06.042.065.041.154.091.311.179l7.063 3.923v-8.284ZM3.763 7.507v.002-.002ZM19.456 7 16.5 8.642 19.456 7Zm0 0-7.26-4.074c-.04-.02-.146-.027-.146-.027" clip-rule="evenodd"/>
</svg>
