<svg xmlns="http://www.w3.org/2000/svg" width="24" height="24" fill="currentColor" viewBox="0 0 24 24">
  <path fill-rule="evenodd" d="M11.648 1.43a1.75 1.75 0 0 1 .705 0c.267.055.507.19.732.315l.056.031 7.4 4.111.06.033c.238.132.492.272.686.483.169.183.297.4.375.636.09.272.089.563.088.834V12a.75.75 0 0 1-1.5 0V8.275l-3.372 1.873a.636.636 0 0 1-.026.014l-4.102 2.28v8.295a.75.75 0 0 1 .614 1.363l-.223.124-.056.031c-.225.126-.465.26-.732.315a1.748 1.748 0 0 1-.705 0c-.267-.055-.508-.189-.733-.315l-.056-.031-7.4-4.111-.06-.033c-.238-.131-.492-.272-.686-.482a1.75 1.75 0 0 1-.374-.637c-.09-.272-.09-.562-.089-.834V7.873c0-.271-.001-.562.089-.834a1.75 1.75 0 0 1 .374-.636c.194-.21.448-.351.686-.483l.06-.033 3.665-2.036a.724.724 0 0 1 .022-.012l3.713-2.063.056-.031c.225-.126.466-.26.733-.315ZM7.5 5.358 4.545 7 12 11.142 14.956 9.5 7.5 5.358ZM9.045 4.5l7.472 4.133L19.456 7l-7.043-3.913a6.694 6.694 0 0 0-.3-.16.487.487 0 0 0-.063-.028m-.8 9.542-7.5-4.166v7.784c0 .18 0 .282.005.36a.495.495 0 0 0 .008.072.25.25 0 0 0 .053.09c.004.003.02.016.06.042.065.041.154.091.311.179l7.063 3.923v-8.284Zm7.75 3.31a2.25 2.25 0 1 0 0 4.5 2.25 2.25 0 0 0 0-4.5ZM15.25 18a3.75 3.75 0 1 1 6.667 2.356l.614.613a.75.75 0 0 1-1.061 1.06l-.715-.715A3.75 3.75 0 0 1 15.25 18Z" clip-rule="evenodd"/>
</svg>
