<svg xmlns="http://www.w3.org/2000/svg" width="24" height="24" fill="currentColor" viewBox="0 0 24 24">
  <path d="M15.307 15.007c-.228 0-.402-.063-.522-.19-.12-.125-.18-.302-.18-.53V9.22c0-.228.06-.405.18-.531s.294-.19.522-.19c.222 0 .393.064.513.19s.18.303.18.53v5.068c0 .228-.06.405-.18.53-.114.127-.285.19-.513.19Zm-7.299 0a.69.69 0 0 1-.414-.117.531.531 0 0 1-.198-.315.72.72 0 0 1 .081-.441l2.304-5.05c.096-.203.21-.35.342-.44a.76.76 0 0 1 .46-.144.76.76 0 0 1 .458.144c.132.09.243.237.333.44l2.322 5.05a.74.74 0 0 1 .081.45.459.459 0 0 1-.18.315.672.672 0 0 1-.396.108c-.204 0-.363-.048-.477-.144-.108-.096-.204-.246-.288-.45l-.54-1.251.558.387H8.701l.558-.387-.53 1.25c-.09.21-.187.364-.289.46-.096.09-.24.135-.432.135Zm2.556-4.941L9.412 12.81l-.243-.351h2.817l-.243.35-1.16-2.744h-.019Z"/>
  <path fill-rule="evenodd" d="M9 1.25a.75.75 0 0 1 .75.75v2.25h4.5V2a.75.75 0 0 1 1.5 0v2.266c.171.006.331.015.482.027.546.045 1.026.14 1.47.366a3.75 3.75 0 0 1 1.64 1.639c.226.444.32.924.365 1.47.012.15.02.311.027.482H22a.75.75 0 0 1 0 1.5h-2.25v3.5H22a.75.75 0 0 1 0 1.5h-2.25a20.33 20.33 0 0 1-.043 1.482c-.045.546-.14 1.026-.366 1.47a3.75 3.75 0 0 1-1.639 1.64c-.444.226-.924.32-1.47.365-.15.012-.311.02-.482.027V22a.75.75 0 0 1-1.5 0v-2.25h-4.5V22a.75.75 0 0 1-1.5 0v-2.266a10.807 10.807 0 0 1-.481-.027c-.547-.045-1.027-.14-1.471-.366a3.75 3.75 0 0 1-1.64-1.639c-.226-.444-.32-.924-.365-1.47a19.705 19.705 0 0 1-.043-1.482H2a.75.75 0 0 1 0-1.5h2.25v-3.5H2a.75.75 0 0 1 0-1.5h2.266c.006-.171.015-.331.027-.481.045-.547.14-1.027.366-1.471a3.75 3.75 0 0 1 1.639-1.64c.444-.226.924-.32 1.47-.365.15-.012.311-.02.482-.027V2A.75.75 0 0 1 9 1.25ZM5.75 14.2c0 .853 0 1.447.038 1.91.037.453.107.714.207.912.216.423.56.767.984.983.197.1.458.17.912.207.462.037 1.057.038 1.909.038h4.4c.853 0 1.447 0 1.91-.038.453-.038.714-.107.912-.207.423-.216.767-.56.983-.983.1-.198.17-.459.207-.913.037-.462.038-1.057.038-1.909V9.8c0-.852 0-1.447-.038-1.91-.038-.453-.107-.714-.207-.911a2.25 2.25 0 0 0-.983-.984c-.198-.1-.459-.17-.913-.207-.462-.037-1.057-.038-1.909-.038H9.8c-.852 0-1.447 0-1.91.038-.453.037-.714.107-.911.207a2.25 2.25 0 0 0-.984.984c-.1.197-.17.458-.207.912-.037.462-.038 1.057-.038 1.909v4.4Z" clip-rule="evenodd"/>
</svg>
