<svg xmlns="http://www.w3.org/2000/svg" width="24" height="24" fill="currentColor" viewBox="0 0 24 24">
  <path fill-rule="evenodd" d="M8.332 1.25h7.337c.369 0 .694 0 .958.024.273.025.583.082.863.267.385.255.653.651.747 1.103.068.329.006.638-.072.9-.076.254-.197.557-.334.899l-1.02 2.55-.044.11-.008.024a.25.25 0 0 0-.007.037v.025c-.002.025-.002.058-.002.12v2.13c0 .11 0 .17.002.217a.255.255 0 0 0 .025.107c0-.003.002.004.026.036.027.037.065.085.134.17l1.592 1.99c.314.393.581.727.767 1.008.182.275.373.624.374 1.031a1.75 1.75 0 0 1-.659 1.37c-.318.254-.71.322-1.039.352-.334.03-.763.03-1.265.03H12.75V22a.75.75 0 0 1-1.5 0v-6.25H7.294c-.503 0-.93 0-1.266-.03-.328-.03-.72-.098-1.039-.352a1.75 1.75 0 0 1-.658-1.37c0-.407.192-.756.374-1.031.186-.28.453-.615.767-1.007l1.592-1.99c.069-.086.107-.134.134-.17.024-.033.027-.04.025-.037a.25.25 0 0 0 .022-.064 6.206 6.206 0 0 0 .005-.26v-2.25l-.001-.025a.25.25 0 0 0-.007-.037c0 .001 0-.003-.009-.023a5.946 5.946 0 0 0-.043-.112l-1.008-2.52-.012-.03a11.471 11.471 0 0 1-.334-.897c-.078-.263-.14-.572-.072-.901a1.75 1.75 0 0 1 .747-1.103c.28-.185.59-.242.863-.267.263-.024.59-.024.958-.024Z" clip-rule="evenodd"/>
</svg>
