<svg xmlns="http://www.w3.org/2000/svg" width="24" height="24" fill="currentColor" viewBox="0 0 24 24">
  <path fill-rule="evenodd" d="M8.332 1.25h7.337c.369 0 .694 0 .958.024.273.025.583.082.863.267.385.255.653.651.747 1.103.068.329.006.638-.072.9-.076.254-.197.557-.334.899l-1.02 2.55-.044.11-.008.024a.25.25 0 0 0-.007.037v.025c-.002.025-.002.058-.002.12v2.13c0 .11 0 .17.002.217a.255.255 0 0 0 .025.107c0-.003.002.004.026.036.027.037.065.085.134.17l1.592 1.99c.314.393.581.727.767 1.008.182.275.373.624.374 1.031a1.75 1.75 0 0 1-.659 1.37c-.318.254-.71.322-1.039.352-.334.03-.763.03-1.265.03H12.75V22a.75.75 0 0 1-1.5 0v-6.25H7.294c-.503 0-.93 0-1.266-.03-.328-.03-.72-.098-1.039-.352a1.75 1.75 0 0 1-.658-1.37c0-.407.192-.756.374-1.031.186-.28.453-.615.767-1.007l1.592-1.99c.069-.086.107-.134.134-.17.024-.033.027-.04.025-.037a.25.25 0 0 0 .022-.064 6.206 6.206 0 0 0 .005-.26v-2.25l-.001-.025a.25.25 0 0 0-.007-.037c0 .001 0-.003-.009-.023a5.946 5.946 0 0 0-.043-.112l-1.008-2.52-.012-.03a11.471 11.471 0 0 1-.334-.897c-.078-.263-.14-.572-.072-.901a1.75 1.75 0 0 1 .747-1.103c.28-.185.59-.242.863-.267.263-.024.59-.024.958-.024Zm8.34 13c.547 0 .906 0 1.165-.024.164-.015.233-.036.253-.043a.25.25 0 0 0 .08-.165 1.171 1.171 0 0 0-.126-.224c-.143-.216-.367-.497-.709-.925l-1.57-1.962-.025-.032c-.104-.13-.216-.269-.298-.43a1.75 1.75 0 0 1-.156-.444 2.55 2.55 0 0 1-.036-.521V7.286c0-.093 0-.192.012-.293a1.758 1.758 0 0 1 .148-.537l.008-.02 1.008-2.52c.153-.381.247-.62.301-.8a.838.838 0 0 0 .04-.176.25.25 0 0 0-.098-.143.834.834 0 0 0-.178-.03 10.822 10.822 0 0 0-.854-.017H8.364c-.41 0-.667 0-.855.018a.836.836 0 0 0-.177.029.25.25 0 0 0-.097.143c0 .014.006.065.039.176.053.18.148.419.3.8l1.008 2.52.009.02c.034.086.071.178.098.276a1.75 1.75 0 0 1 .061.554V9.48c0 .166.001.344-.035.521a1.75 1.75 0 0 1-.156.444c-.082.161-.194.3-.298.43a6.45 6.45 0 0 0-.026.032l-1.57 1.962c-.342.428-.565.709-.708.925a1.176 1.176 0 0 0-.125.224.25.25 0 0 0 .08.165c.019.007.088.028.252.043.259.023.618.024 1.165.024h9.342Z" clip-rule="evenodd"/>
</svg>
