<svg xmlns="http://www.w3.org/2000/svg" width="24" height="24" fill="currentColor" viewBox="0 0 24 24">
  <path fill-rule="evenodd" d="M17.17 2.256a3.279 3.279 0 0 1 4.68-.037 3.27 3.27 0 0 1 .951 2.063 3.277 3.277 0 0 1-.898 2.525l-2.779 2.91c-.115.12-.178.187-.223.24a.566.566 0 0 0-.035.045.203.203 0 0 0-.02.07c0 .006.002.023.008.057a6.4 6.4 0 0 0 .07.32l1.727 7.488.015.063c.058.25.122.524.1.804a1.8 1.8 0 0 1-.199.696c-.13.248-.33.447-.51.628l-.047.046-.396.395c-.282.282-.53.531-.75.713-.224.187-.508.384-.87.449a1.8 1.8 0 0 1-1.387-.328c-.296-.22-.462-.523-.58-.79-.113-.26-.225-.595-.35-.974l-1.612-4.834-2.43 2.43a6.548 6.548 0 0 0-.238.249.202.202 0 0 0-.022.065c.001-.01-.002-.005.001.049.004.061.013.143.03.291l.183 1.654.006.056c.025.222.053.468.014.712a1.801 1.801 0 0 1-.212.606c-.122.215-.298.39-.456.547l-.04.04-.22.22c-.217.218-.416.416-.594.566-.19.159-.422.32-.72.399a1.8 1.8 0 0 1-1.24-.123 1.844 1.844 0 0 1-.629-.532c-.145-.182-.3-.416-.472-.672l-1.585-2.378a5.954 5.954 0 0 0-.069-.102l-.012-.017a.195.195 0 0 0-.022-.022l-.017-.012a5.61 5.61 0 0 0-.102-.07l-2.371-1.58a12.089 12.089 0 0 1-.616-.427c-.213-.164-.447-.373-.595-.677a1.8 1.8 0 0 1-.123-1.241c.078-.298.24-.53.399-.72.15-.178.348-.377.566-.595l.22-.219.04-.04c.157-.158.332-.334.547-.456.187-.107.393-.179.605-.212.245-.04.49-.012.713.014l.056.006 1.654.184a6.65 6.65 0 0 0 .342.03.2.2 0 0 0 .063-.022 6.43 6.43 0 0 0 .249-.238l2.43-2.43-4.835-1.611a12.434 12.434 0 0 1-.973-.352c-.267-.117-.57-.283-.79-.579a1.8 1.8 0 0 1-.328-1.386c.064-.363.262-.647.448-.872.183-.218.432-.468.714-.75l.024-.024.371-.371.046-.046c.18-.181.38-.382.628-.511a1.8 1.8 0 0 1 .696-.2c.28-.022.555.043.803.1l.064.016 7.46 1.72c.162.039.253.06.322.071a.545.545 0 0 0 .058.008.2.2 0 0 0 .077-.023.578.578 0 0 0 .044-.038 6.65 6.65 0 0 0 .233-.234l2.71-2.8ZM6.718 12.806h.001-.001Zm4.678 4.68.001-.002v.001Zm7.468-7.482.002-.002-.002.002Zm.889-7.132a1.679 1.679 0 0 0-1.433.497l-2.71 2.8-.045.046c-.174.18-.367.38-.607.513a1.8 1.8 0 0 1-.742.219c-.274.02-.544-.044-.788-.1l-.063-.015L5.906 5.11a6.652 6.652 0 0 0-.329-.072.535.535 0 0 0-.058-.007.2.2 0 0 0-.072.02.538.538 0 0 0-.045.038c-.053.047-.12.114-.241.234l-.371.371c-.314.314-.51.511-.64.667a.995.995 0 0 0-.104.144.2.2 0 0 0 .028.122c.016.01.061.039.158.081.186.082.45.17.87.31l6.03 2.01a.8.8 0 0 1 .313 1.325L8.098 13.7a9.56 9.56 0 0 0-.04.04c-.158.158-.332.333-.547.456a1.8 1.8 0 0 1-.606.212c-.245.04-.49.011-.713-.014l-.056-.006-1.653-.184a6.538 6.538 0 0 0-.292-.029.5.5 0 0 0-.05-.001.197.197 0 0 0-.064.022 6.433 6.433 0 0 0-.249.238l-.197.197a9.394 9.394 0 0 0-.493.514.789.789 0 0 0-.079.105.2.2 0 0 0 .012.117 11.326 11.326 0 0 0 .682.495l2.353 1.569.02.013c.079.053.167.111.25.182.072.061.139.128.2.2.07.083.13.171.182.25l.013.02 1.569 2.353c.193.29.31.464.406.585a.79.79 0 0 0 .088.097.2.2 0 0 0 .118.012.788.788 0 0 0 .105-.079c.118-.099.267-.247.514-.493l.197-.198a6.593 6.593 0 0 0 .238-.248.203.203 0 0 0 .022-.063l-.001-.052a6.458 6.458 0 0 0-.03-.29l-.183-1.654-.006-.057c-.025-.222-.053-.468-.014-.712a1.8 1.8 0 0 1 .212-.606c.122-.215.298-.39.456-.547l.04-.04 3.346-3.346a.8.8 0 0 1 1.324.313l2.01 6.03c.14.42.23.684.31.87.043.097.07.141.082.157a.2.2 0 0 0 .122.03.983.983 0 0 0 .144-.105c.155-.13.353-.326.667-.64l.37-.37c.121-.121.188-.189.235-.242.041-.046.042-.054.036-.043a.2.2 0 0 0 .022-.074.494.494 0 0 0-.007-.059 6.563 6.563 0 0 0-.072-.328l-1.728-7.488-.014-.062c-.057-.242-.12-.51-.1-.784.017-.237.08-.47.187-.682.123-.245.314-.443.486-.623l.044-.046 2.779-2.91c.344-.36.497-.832.46-1.295a1.674 1.674 0 0 0-.487-1.057 1.672 1.672 0 0 0-.966-.478Zm-9.724 17.192v-.002.002Z" clip-rule="evenodd"/>
</svg>
