<svg xmlns="http://www.w3.org/2000/svg" width="24" height="24" fill="currentColor" viewBox="0 0 24 24">
  <path fill-rule="evenodd" d="M9.17 1.25h5.66c.535 0 .98 0 1.345.03.38.03.736.098 1.073.27a2.75 2.75 0 0 1 1.202 1.202c.172.337.24.693.27 1.073.03.365.03.81.03 1.345v1.096c.171.006.331.015.482.027.546.045 1.026.14 1.47.366a3.75 3.75 0 0 1 1.64 1.639c.226.444.32.924.365 1.47.043.531.043 1.187.043 2v2.348c0 .818 0 1.376-.128 1.855a3.75 3.75 0 0 1-2.651 2.651c-.344.092-.729.118-1.221.125v.084c0 .534 0 .98-.03 1.344-.03.38-.098.736-.27 1.073a2.75 2.75 0 0 1-1.201 1.202c-.338.172-.694.24-1.074.27-.365.03-.81.03-1.345.03H9.17c-.535 0-.98 0-1.345-.03-.38-.03-.736-.098-1.073-.27a2.75 2.75 0 0 1-1.202-1.2c-.172-.338-.24-.694-.27-1.074-.03-.365-.03-.81-.03-1.345v-.083c-.492-.007-.877-.033-1.22-.125a3.75 3.75 0 0 1-2.652-2.651c-.128-.48-.128-1.037-.128-1.855v-2.349c0-.813 0-1.469.043-2 .045-.546.14-1.026.366-1.47a3.75 3.75 0 0 1 1.639-1.64c.444-.226.924-.32 1.47-.365.15-.012.311-.02.482-.027V5.17c0-.535 0-.98.03-1.345.03-.38.098-.736.27-1.073A2.75 2.75 0 0 1 6.752 1.55c.337-.172.693-.24 1.073-.27.365-.03.81-.03 1.345-.03Zm-2.42 5h10.5V5.2c0-.572 0-.957-.025-1.253-.023-.287-.065-.424-.111-.514a1.25 1.25 0 0 0-.547-.547c-.09-.046-.227-.088-.514-.111-.296-.024-.68-.025-1.253-.025H9.2c-.572 0-.957 0-1.252.025-.288.023-.425.065-.515.111a1.25 1.25 0 0 0-.547.547c-.046.09-.088.227-.111.514-.024.296-.025.68-.025 1.253v1.05Zm0 12.55c0 .572 0 .957.025 1.252.023.288.065.425.111.515.12.236.311.427.547.547.09.046.227.088.515.111.295.024.68.025 1.252.025h5.6c.572 0 .957 0 1.253-.025.287-.023.424-.065.514-.111a1.25 1.25 0 0 0 .547-.547c.046-.09.088-.227.111-.515.024-.295.025-.68.025-1.252v-1.6c0-.572 0-.957-.025-1.252-.023-.288-.065-.425-.111-.516a1.25 1.25 0 0 0-.547-.546c-.09-.046-.227-.088-.514-.111-.296-.024-.68-.025-1.253-.025H9.2c-.572 0-.957 0-1.252.025-.288.023-.425.065-.515.111a1.25 1.25 0 0 0-.547.546c-.046.091-.088.228-.111.515-.024.296-.025.68-.025 1.253v1.6Zm12-1.554v-.076c0-.535 0-.98-.03-1.345-.03-.38-.098-.736-.27-1.073a2.75 2.75 0 0 0-1.201-1.202c-.338-.172-.694-.24-1.074-.27-.365-.03-.81-.03-1.345-.03H9.17c-.535 0-.98 0-1.345.03-.38.03-.736.098-1.073.27a2.75 2.75 0 0 0-1.202 1.2c-.172.338-.24.694-.27 1.074-.03.365-.03.81-.03 1.345v.076c-.435-.006-.652-.024-.832-.073a2.25 2.25 0 0 1-1.591-1.59c-.07-.263-.077-.605-.077-1.583v-2.2c0-.853 0-1.447.038-1.91.038-.453.107-.714.207-.911a2.25 2.25 0 0 1 .984-.984c.197-.1.458-.17.912-.207.462-.037 1.057-.038 1.909-.038h10.4c.852 0 1.447 0 1.91.038.453.037.714.107.912.207.423.216.767.56.983.984.1.197.17.458.207.912.038.462.038 1.056.038 1.909V14c0 .978-.006 1.32-.077 1.582a2.25 2.25 0 0 1-1.59 1.591c-.18.049-.398.067-.833.073Zm-4.5-6.746a.75.75 0 0 1 .75-.75h3a.75.75 0 1 1 0 1.5h-3a.75.75 0 0 1-.75-.75Z" clip-rule="evenodd"/>
</svg>
