<svg xmlns="http://www.w3.org/2000/svg" width="24" height="24" fill="currentColor" viewBox="0 0 24 24">
  <path fill-rule="evenodd" d="M12 3.75c-2.28 0-4.342.923-5.836 2.418-.783.784-1.67 1.848-2.37 2.73-.098.121-.19.24-.28.352H8a.75.75 0 0 1 0 1.5H2a.75.75 0 0 1-.75-.75V4a.75.75 0 0 1 1.5 0v3.8c.69-.863 1.559-1.897 2.353-2.692A9.722 9.722 0 0 1 12 2.25c5.385 0 9.75 4.365 9.75 9.75s-4.365 9.75-9.75 9.75c-4.446 0-8.195-2.975-9.369-7.042a.75.75 0 1 1 1.441-.416A8.25 8.25 0 1 0 12 3.75Z" clip-rule="evenodd"/>
</svg>
