<svg xmlns="http://www.w3.org/2000/svg" width="24" height="24" fill="currentColor" viewBox="0 0 24 24">
  <path fill-rule="evenodd" d="M5.74 1.25h2.776c.634 0 1.155 0 1.578.034.439.036.839.112 1.214.3.584.295 1.06.766 1.359 1.347.192.373.27.772.305 1.208.035.42.035.936.035 1.563v6.596c0 .627 0 1.143-.035 1.563-.036.436-.113.835-.305 1.208a3.094 3.094 0 0 1-1.36 1.346c-.374.19-.774.265-1.213.3-.423.035-.944.035-1.578.035H5.741c-.634 0-1.155 0-1.578-.034-.439-.036-.839-.112-1.214-.3a3.095 3.095 0 0 1-1.359-1.347c-.192-.373-.27-.772-.305-1.208-.035-.42-.035-.936-.035-1.563V5.702c0-.627 0-1.143.035-1.563.036-.436.113-.835.305-1.208a3.095 3.095 0 0 1 1.36-1.346c.374-.19.774-.265 1.213-.3.423-.035.944-.035 1.578-.035ZM4.285 2.78c-.348.027-.53.079-.66.144a1.595 1.595 0 0 0-.7.693c-.065.126-.116.303-.144.646-.03.35-.03.804-.03 1.47v6.534c0 .666 0 1.12.03 1.47.028.343.08.52.144.646a1.6 1.6 0 0 0 .7.693c.13.065.312.117.66.145.356.028.815.029 1.487.029h2.714c.673 0 1.132 0 1.488-.03.347-.027.53-.079.66-.144a1.6 1.6 0 0 0 .7-.693c.065-.126.116-.303.144-.645.03-.352.03-.805.03-1.471V5.733c0-.666 0-1.12-.03-1.47-.028-.343-.08-.52-.144-.646a1.596 1.596 0 0 0-.7-.693c-.13-.065-.313-.117-.66-.145-.356-.028-.815-.029-1.488-.029H5.771c-.672 0-1.131 0-1.487.03Zm15.713 6.994A18.786 18.786 0 0 0 18.7 9.75h-3.2a.75.75 0 0 1 0-1.5h3.23c.552 0 1.01 0 1.382.029.388.03.747.094 1.087.258.526.253.961.66 1.236 1.172.181.335.252.69.284 1.066.031.357.031.794.031 1.313v6.824c0 .519 0 .956-.03 1.313-.033.375-.104.73-.285 1.066a2.76 2.76 0 0 1-1.236 1.172c-.34.164-.7.228-1.087.258-.373.03-.83.03-1.383.03h-4.084c-.553 0-1.01 0-1.384-.03-.387-.03-.746-.094-1.086-.258a2.76 2.76 0 0 1-1.237-1.172c-.18-.335-.25-.69-.283-1.066-.031-.357-.031-.794-.031-1.313v-.032a.75.75 0 1 1 1.5 0c0 .56 0 .93.025 1.216.024.276.066.402.11.483.12.223.316.412.566.533.102.049.251.09.552.114.308.024.708.024 1.297.024H18.7c.59 0 .989 0 1.297-.024.3-.023.45-.066.551-.114.251-.12.447-.31.567-.532.044-.082.086-.208.11-.484.024-.285.025-.657.025-1.216v-6.76c0-.56 0-.93-.025-1.216-.024-.275-.066-.402-.11-.483a1.261 1.261 0 0 0-.567-.533c-.1-.048-.25-.09-.551-.114Z" clip-rule="evenodd"/>
  <path d="M5.279 12c-.248 0-.44-.067-.575-.202-.136-.14-.203-.333-.203-.58V6.783c0-.253.067-.446.203-.58.14-.135.335-.202.583-.202h2.081c.677 0 1.199.165 1.565.496.372.325.559.779.559 1.361 0 .375-.085.703-.254.983a1.63 1.63 0 0 1-.72.639c-.31.146-.693.218-1.15.218l.068-.15h.406c.242 0 .457.058.643.176.186.112.341.285.465.52l.423.757a.91.91 0 0 1 .127.479.502.502 0 0 1-.186.378c-.113.095-.28.143-.5.143-.22 0-.4-.045-.54-.134a1.188 1.188 0 0 1-.364-.42l-.77-1.404a.54.54 0 0 0-.262-.252.79.79 0 0 0-.356-.076h-.465v1.505c0 .246-.065.44-.195.58-.13.134-.324.201-.583.201Zm.778-3.378h1.032c.299 0 .527-.059.685-.177.158-.117.237-.3.237-.546 0-.235-.079-.412-.237-.53-.158-.122-.386-.184-.685-.184H6.057v1.437Zm9.222 9.878c-.248 0-.44-.067-.575-.202-.136-.14-.204-.333-.204-.58v-4.437c0-.252.068-.445.204-.58.14-.134.335-.201.583-.201h2.081c.677 0 1.199.165 1.565.496.372.325.559.778.559 1.361 0 .376-.085.703-.254.983a1.631 1.631 0 0 1-.72.639c-.31.146-.693.219-1.15.219l.068-.152h.406c.242 0 .457.059.643.177.186.112.341.285.465.52l.423.757c.09.163.133.322.127.479a.502.502 0 0 1-.186.378c-.113.095-.28.143-.5.143-.22 0-.4-.045-.54-.134a1.187 1.187 0 0 1-.364-.42l-.77-1.404a.54.54 0 0 0-.262-.252.79.79 0 0 0-.356-.076h-.465v1.505c0 .246-.065.44-.194.58-.13.134-.325.201-.584.201Zm.778-3.378h1.032c.299 0 .527-.059.685-.177.158-.117.237-.3.237-.546 0-.235-.079-.412-.237-.53-.158-.123-.386-.184-.685-.184h-1.032v1.437Z"/>
</svg>
