<svg xmlns="http://www.w3.org/2000/svg" width="24" height="24" fill="currentColor" viewBox="0 0 24 24">
  <path fill-rule="evenodd" d="M11.5 3.75a7.75 7.75 0 1 0 5.379 13.33.755.755 0 0 1 .2-.201A7.75 7.75 0 0 0 11.5 3.75Zm7.05 13.739a9.213 9.213 0 0 0 2.2-5.989 9.25 9.25 0 1 0-3.261 7.05l2.98 2.98a.75.75 0 1 0 1.061-1.06l-2.98-2.981Z" clip-rule="evenodd"/>
  <path d="M10.75 16.25a.75.75 0 0 1 .75-.75h.01a.75.75 0 0 1 0 1.5h-.01a.75.75 0 0 1-.75-.75Zm1.05-8.772A2.25 2.25 0 0 0 9.298 8.95a.75.75 0 1 1-1.415-.497A3.75 3.75 0 0 1 15.17 9.7c0 1.398-1.039 2.343-1.834 2.873a7.801 7.801 0 0 1-1.631.821l-.032.012-.01.003-.004.001s-.002.001-.239-.71l.237.711a.75.75 0 0 1-.475-1.423h.003l.018-.007.079-.03a6.303 6.303 0 0 0 1.222-.626c.705-.47 1.166-1.024 1.166-1.626a2.25 2.25 0 0 0-1.87-2.222Z"/>
</svg>
