<svg xmlns="http://www.w3.org/2000/svg" width="24" height="24" fill="currentColor" viewBox="0 0 24 24">
  <path d="M13.78 1.32a.75.75 0 0 1 0 1.06l-.668.669c.968.11 1.856.404 2.668.82a9.783 9.783 0 0 1 3.553 2.752A9.708 9.708 0 0 1 21.5 12.75a9.724 9.724 0 0 1-3.006 7.042 9.761 9.761 0 0 1-2.952 1.943.75.75 0 0 1-.584-1.382 8.262 8.262 0 0 0 2.498-1.645 8.224 8.224 0 0 0 2.517-6.635c-.168-1.79-1.093-3.535-2.274-4.814-.77-.834-1.624-1.547-2.574-2.04a8.188 8.188 0 0 0-2.06-.615l.715.716a.75.75 0 0 1-1.06 1.06l-2-2a.75.75 0 0 1 0-1.06l2-2a.75.75 0 0 1 1.06 0ZM6.044 6.792a.75.75 0 0 0-1.038-1.084c-.473.453-.9.954-1.274 1.494a.75.75 0 1 0 1.232.854c.317-.457.68-.88 1.08-1.264Zm-2.378 4.303a.75.75 0 1 0-1.47-.299 9.79 9.79 0 0 0 0 3.908.75.75 0 0 0 1.47-.3 8.292 8.292 0 0 1 0-3.309Zm1.298 6.349a.75.75 0 0 0-1.232.854 9.798 9.798 0 0 0 2.732 2.646.75.75 0 0 0 .814-1.26 8.29 8.29 0 0 1-2.314-2.24Zm5.219 3.408a.75.75 0 1 0-.283 1.473 9.79 9.79 0 0 0 1.85.175.75.75 0 0 0 0-1.5c-.537 0-1.06-.051-1.567-.148Z"/>
</svg>
