<svg xmlns="http://www.w3.org/2000/svg" width="24" height="24" fill="currentColor" viewBox="0 0 24 24">
  <path fill-rule="evenodd" d="M16.614 1.518a1.25 1.25 0 0 1 .772 0c.189.062.329.164.428.248.088.075.181.169.268.255l3.897 3.897c.086.087.18.18.254.268.085.1.187.239.249.428a1.25 1.25 0 0 1 0 .772 1.26 1.26 0 0 1-.249.428c-.074.088-.168.181-.254.268L8.082 21.979c-.087.086-.18.18-.268.254a1.26 1.26 0 0 1-.428.249 1.25 1.25 0 0 1-.772 0 1.26 1.26 0 0 1-.428-.249c-.088-.074-.181-.168-.268-.254l-3.897-3.897c-.086-.087-.18-.18-.255-.268a1.26 1.26 0 0 1-.248-.428 1.25 1.25 0 0 1 0-.772 1.26 1.26 0 0 1 .248-.428c.075-.088.169-.181.255-.268L15.918 2.021c.087-.086.18-.18.268-.255.1-.084.239-.186.428-.248ZM17 3.061l-.035.035L15.06 5l1.47 1.47a.75.75 0 1 1-1.061 1.06L14 6.06 12.06 8l1.47 1.47a.75.75 0 1 1-1.06 1.06L11 9.06 9.06 11l1.47 1.47a.75.75 0 1 1-1.06 1.06L8 12.06 6.06 14l1.47 1.47a.75.75 0 1 1-1.06 1.06L5 15.06l-1.904 1.905L3.06 17l.035.035 3.869 3.869.035.035.035-.035 13.87-13.869.035-.035-.035-.035-3.869-3.87L17 3.062Z" clip-rule="evenodd"/>
</svg>
