<svg xmlns="http://www.w3.org/2000/svg" width="24" height="24" fill="currentColor" viewBox="0 0 24 24">
  <path fill-rule="evenodd" d="M15.463 3.785c-.123-.03-.264-.035-.788-.035H7.75V6.4c0 .292 0 .467.011.596a.628.628 0 0 0 .018.12.25.25 0 0 0 .104.105.627.627 0 0 0 .121.018c.13.01.304.011.596.011h6.8c.292 0 .467 0 .596-.011a.625.625 0 0 0 .12-.018.25.25 0 0 0 .105-.104.638.638 0 0 0 .018-.121c.01-.13.011-.304.011-.596V4.311c-.247-.244-.334-.32-.425-.377a1.25 1.25 0 0 0-.362-.15ZM17.75 5.81v.615c0 .258 0 .494-.016.692a1.775 1.775 0 0 1-.175.677 1.75 1.75 0 0 1-.765.764c-.23.118-.463.158-.676.175-.198.016-.434.016-.692.016H8.574c-.258 0-.494 0-.692-.016a1.774 1.774 0 0 1-.676-.175 1.75 1.75 0 0 1-.765-.764 1.774 1.774 0 0 1-.175-.677c-.016-.198-.016-.434-.016-.692V3.767a8.938 8.938 0 0 0-.36.021c-.453.038-.714.107-.911.207a2.25 2.25 0 0 0-.984.984c-.1.197-.17.458-.207.912-.037.462-.038 1.057-.038 1.909v8.4c0 .852 0 1.447.038 1.91.037.453.107.714.207.912.216.423.56.767.984.983.197.1.458.17.912.207.111.009.23.016.359.021v-5.66c0-.257 0-.493.016-.69a1.77 1.77 0 0 1 .175-.677 1.75 1.75 0 0 1 .765-.765 1.77 1.77 0 0 1 .676-.175c.198-.016.434-.016.692-.016h6.852c.258 0 .494 0 .692.016.213.018.446.057.677.175.329.168.596.435.764.765.118.23.157.463.175.676.016.198.016.434.016.692v5.659c.129-.005.248-.012.36-.021.453-.037.714-.107.912-.207a2.25 2.25 0 0 0 .983-.983c.1-.198.17-.459.207-.913.037-.462.038-1.057.038-1.909V9.326c0-.525-.005-.666-.035-.79a1.253 1.253 0 0 0-.15-.36c-.066-.11-.161-.212-.533-.583L17.75 5.811Zm-.694 15.937a17.1 17.1 0 0 0 1.175-.041c.547-.045 1.027-.14 1.471-.366a3.75 3.75 0 0 0 1.64-1.639c.226-.444.32-.924.365-1.47.043-.531.043-1.187.043-2V9.253c0-.419 0-.748-.076-1.066a2.75 2.75 0 0 0-.33-.795c-.17-.28-.404-.512-.7-.808l-.05-.052-3.126-3.125-.052-.051c-.296-.296-.528-.53-.808-.7a2.75 2.75 0 0 0-.795-.33c-.318-.076-.647-.076-1.066-.076H7.768l-.723.001a.767.767 0 0 0-.101.001 17.1 17.1 0 0 0-1.175.041c-.547.045-1.027.14-1.471.366a3.75 3.75 0 0 0-1.64 1.639c-.226.444-.32.924-.365 1.47-.043.532-.043 1.187-.043 2v8.464c0 .813 0 1.469.043 2 .045.546.14 1.026.366 1.47a3.75 3.75 0 0 0 1.639 1.64c.444.226.924.32 1.47.365a16.49 16.49 0 0 0 1.277.042l.723.001h8.464l.723-.001a.76.76 0 0 0 .101-.001Zm-.806-1.498V14.6c0-.292 0-.466-.011-.596a.638.638 0 0 0-.018-.12.25.25 0 0 0-.105-.105.618.618 0 0 0-.12-.018 8.312 8.312 0 0 0-.596-.01H8.6c-.292 0-.467 0-.596.01a.619.619 0 0 0-.12.018.25.25 0 0 0-.105.104.628.628 0 0 0-.018.121c-.01.13-.011.304-.011.596v5.65h8.5Zm-8.47-6.37v.002-.001Zm.1-.1h.002-.001Zm8.24 0h-.002.001Zm.1.1v.002-.001Zm0-6.76v-.002.001Zm-.102.1a.02.02 0 0 1 .001 0h-.001Zm-8.236 0a.01.01 0 0 1-.001 0h.001Zm-.103-.102v.001-.001Z" clip-rule="evenodd"/>
</svg>
