<svg xmlns="http://www.w3.org/2000/svg" width="24" height="24" fill="currentColor" viewBox="0 0 24 24">
  <path fill-rule="evenodd" d="m3.942 3.051.028.013 16.745 7.535c.233.105.452.204.62.299.16.089.42.251.567.548.173.35.173.759 0 1.108-.146.297-.408.46-.566.549a8.294 8.294 0 0 1-.621.298L3.948 20.946c-.24.108-.464.209-.65.273-.173.06-.473.15-.797.06a1.25 1.25 0 0 1-.828-.75c-.122-.313-.063-.62-.02-.799.046-.191.124-.424.207-.673l2.344-7.003.006-.016-.005-.016-2.343-7.056-.01-.03c-.082-.248-.159-.48-.204-.671-.042-.179-.1-.486.022-.798a1.25 1.25 0 0 1 .829-.748c.323-.09.622 0 .796.06.185.064.408.165.647.272ZM3.25 4.385l.036.108L5.53 11.25h4.97a.75.75 0 0 1 0 1.5H5.553l-2.261 6.754-.036.109.104-.047 16.711-7.52.102-.046-.102-.046L3.354 4.432a90.794 90.794 0 0 0-.104-.047Z" clip-rule="evenodd"/>
</svg>
