<svg xmlns="http://www.w3.org/2000/svg" width="24" height="24" fill="currentColor" viewBox="0 0 24 24">
  <path fill-rule="evenodd" d="M10.25 2a.75.75 0 0 1 .75-.75h3.108c.698 0 1.3 0 1.82.014 1.119.03 1.98.122 2.729.504a4.752 4.752 0 0 1 2.075 2.076c.353.692.457 1.475.496 2.463.022.579.022 1.264.022 2.08v.015l-.022 9.6a.75.75 0 0 1-1.5-.004L19.75 8.4c0-.83 0-1.489-.021-2.035-.037-.944-.136-1.452-.333-1.84a3.25 3.25 0 0 0-1.42-1.42c-.425-.217-.986-.312-2.088-.342A71.431 71.431 0 0 0 14.1 2.75H11a.75.75 0 0 1-.75-.75ZM7.687 4.75h4.545c.813 0 1.469 0 2 .043.546.045 1.026.14 1.47.366a3.75 3.75 0 0 1 1.64 1.639c.226.444.32.924.365 1.47.043.531.043 1.187.043 2v6.464c0 .813 0 1.469-.043 2-.045.546-.14 1.026-.366 1.47a3.75 3.75 0 0 1-1.639 1.64c-.04.02-.08.04-.12.062-.22.116-.455.24-.79.295-.312.051-.748.051-1.479.051H8.768c-.813 0-1.469 0-2-.043-.546-.045-1.026-.14-1.47-.366a3.75 3.75 0 0 1-1.64-1.639c-.226-.444-.32-.924-.365-1.47-.043-.531-.043-1.187-.043-2v-6.464c0-.813 0-1.469.043-2 .045-.546.14-1.026.366-1.47a3.75 3.75 0 0 1 1.639-1.64c.04-.02.08-.04.12-.062.22-.116.455-.24.79-.295.312-.051.748-.051 1.479-.051ZM6.17 6.397l-.191.098a2.25 2.25 0 0 0-.984.984c-.1.197-.17.458-.207.912-.037.462-.038 1.057-.038 1.909v6.4c0 .852 0 1.447.038 1.91.037.453.107.714.207.912.216.423.56.767.984.983.197.1.458.17.912.207.462.037 1.057.038 1.909.038h4.4c.88 0 1.176-.003 1.35-.031.081-.013.089-.017.28-.116l.191-.098c.424-.216.768-.56.984-.983.1-.198.17-.459.207-.913.037-.462.038-1.057.038-1.909v-6.4c0-.852 0-1.447-.038-1.91-.038-.453-.107-.714-.207-.911a2.25 2.25 0 0 0-.983-.984c-.198-.1-.459-.17-.913-.207-.462-.037-1.056-.038-1.909-.038H7.8c-.88 0-1.176.003-1.35.031-.081.013-.089.017-.28.116ZM6.25 9.5A.75.75 0 0 1 7 8.75h7a.75.75 0 0 1 0 1.5H7a.75.75 0 0 1-.75-.75Zm0 4a.75.75 0 0 1 .75-.75h5a.75.75 0 0 1 0 1.5H7a.75.75 0 0 1-.75-.75Zm0 4a.75.75 0 0 1 .75-.75h2a.75.75 0 0 1 0 1.5H7a.75.75 0 0 1-.75-.75Z" clip-rule="evenodd"/>
</svg>
