<svg xmlns="http://www.w3.org/2000/svg" width="24" height="24" fill="currentColor" viewBox="0 0 24 24">
  <path fill-rule="evenodd" d="M21.245 12.14a.285.285 0 0 0 0-.28l-4.51-8a.287.287 0 0 0-.25-.146h-8.97a.286.286 0 0 0-.25.146l-4.51 8a.285.285 0 0 0 0 .28l4.51 8c.051.09.147.146.25.146h8.97a.286.286 0 0 0 .25-.146l4.51-8Zm1.497-1.12a1.996 1.996 0 0 1 0 1.96l-4.51 8A2.005 2.005 0 0 1 16.485 22h-8.97c-.724 0-1.392-.39-1.747-1.02l-4.51-8a1.996 1.996 0 0 1 0-1.96l4.51-8A2.005 2.005 0 0 1 7.515 2h8.97c.724 0 1.392.39 1.747 1.02l4.51 8Z" clip-rule="evenodd"/>
  <path fill-rule="evenodd" d="M14.4 12a2.4 2.4 0 1 0-4.8 0 2.4 2.4 0 0 0 4.8 0ZM12 8a4 4 0 1 1 0 8 4 4 0 0 1 0-8Z" clip-rule="evenodd"/>
</svg>
