<svg xmlns="http://www.w3.org/2000/svg" width="24" height="24" fill="currentColor" viewBox="0 0 24 24">
  <path fill-rule="evenodd" d="M10.531 3.297c.244-.3.614-.469 1-.46.327.009.582.173.73.278.155.11.335.265.525.428l8.51 7.295c.108.092.221.189.31.28.1.102.227.25.302.46a1.25 1.25 0 0 1 0 .845 1.277 1.277 0 0 1-.301.459c-.09.091-.203.188-.31.28l-8.511 7.295c-.19.163-.37.317-.525.428-.148.105-.403.27-.73.278a1.25 1.25 0 0 1-1-.46c-.207-.254-.248-.554-.264-.735-.017-.19-.017-.427-.017-.677v-3.387a10.651 10.651 0 0 0-6.673 3.738.75.75 0 0 1-1.327-.479v-.612a10.417 10.417 0 0 1 8-10.127V4.71c0-.25 0-.487.017-.677.016-.18.057-.48.264-.735Zm1.22 1.334-.001.108v4.296a.75.75 0 0 1-.62.738 8.916 8.916 0 0 0-7.281 7.46 12.148 12.148 0 0 1 7.1-2.91.75.75 0 0 1 .801.748v4.298l.082-.07 8.471-7.261.044-.038a35.154 35.154 0 0 1-.044-.038l-8.47-7.26-.083-.071Z" clip-rule="evenodd"/>
</svg>
