<svg xmlns="http://www.w3.org/2000/svg" width="24" height="24" fill="currentColor" viewBox="0 0 24 24">
  <path fill-rule="evenodd" d="M3.35 2.75H2a.75.75 0 0 1 0-1.5h1.324c.107 0 .225 0 .329.008.118.009.271.031.433.105.218.1.403.26.532.462M3.35 2.75l.006.043.473 3.31 1.055 7.757c.063.467.117.86.186 1.18.072.334.171.645.355.935a2.75 2.75 0 0 0 1.173 1.024c.312.143.633.2.975.226.326.025.722.025 1.193.025h8.613c.448 0 .825 0 1.137-.023a2.78 2.78 0 0 0 .937-.21 2.75 2.75 0 0 0 1.157-.957 2.78 2.78 0 0 0 .381-.881c.082-.303.152-.673.236-1.114l1.333-6.998a5.22 5.22 0 0 0 .07-.424c.014-.144.02-.344-.056-.56a1.25 1.25 0 0 0-.549-.663 1.268 1.268 0 0 0-.539-.159 5.217 5.217 0 0 0-.43-.011H5.222L4.84 2.58l-.003-.017a4.487 4.487 0 0 0-.054-.324 1.255 1.255 0 0 0-.166-.414M5.43 6.75l.936 6.88c.069.502.115.837.17 1.094.053.247.104.366.155.446.13.204.315.365.533.466.087.04.211.074.464.093.262.02.6.021 1.106.021h8.558c.482 0 .803 0 1.053-.02.24-.017.36-.049.444-.086a1.25 1.25 0 0 0 .526-.435c.052-.076.105-.188.168-.42.065-.242.126-.557.216-1.03l1.323-6.95.012-.059H5.43ZM7.25 21a1.75 1.75 0 1 1 3.5 0 1.75 1.75 0 0 1-3.5 0Zm8 0a1.75 1.75 0 1 1 3.5 0 1.75 1.75 0 0 1-3.5 0Z" clip-rule="evenodd"/>
  <path fill-rule="evenodd" d="M13 9.25a1.75 1.75 0 1 0 0 3.5 1.75 1.75 0 0 0 0-3.5ZM9.75 11a3.25 3.25 0 1 1 5.848 1.954l.432.432a.75.75 0 0 1-1.06 1.061l-.532-.532A3.25 3.25 0 0 1 9.75 11Z" clip-rule="evenodd"/>
</svg>
