<svg xmlns="http://www.w3.org/2000/svg" width="24" height="24" fill="currentColor" viewBox="0 0 24 24">
  <path d="M14.307 14.5c-.228 0-.402-.063-.522-.189s-.18-.303-.18-.531V8.713c0-.228.06-.405.18-.531s.294-.189.522-.189c.222 0 .393.063.513.189s.18.303.18.531v5.067c0 .228-.06.405-.18.531-.114.126-.285.189-.513.189Zm-7.299 0a.69.69 0 0 1-.414-.117.531.531 0 0 1-.198-.315.72.72 0 0 1 .081-.441l2.304-5.049c.096-.204.21-.351.342-.441a.76.76 0 0 1 .46-.144.76.76 0 0 1 .458.144c.132.09.243.237.333.441l2.322 5.049a.74.74 0 0 1 .081.45.459.459 0 0 1-.18.315.672.672 0 0 1-.396.108c-.204 0-.363-.048-.477-.144-.108-.096-.204-.246-.288-.45l-.54-1.251.558.387H7.701l.558-.387-.53 1.251c-.09.21-.187.363-.289.459-.096.09-.24.135-.432.135Zm2.556-4.941-1.152 2.745-.243-.351h2.817l-.243.351-1.16-2.745h-.019Z"/>
  <path fill-rule="evenodd" d="M11.25 3.5a7.75 7.75 0 1 0 5.379 13.33.755.755 0 0 1 .2-.201A7.75 7.75 0 0 0 11.25 3.5Zm7.05 13.739a9.213 9.213 0 0 0 2.2-5.989 9.25 9.25 0 1 0-3.261 7.05l2.98 2.98a.75.75 0 1 0 1.061-1.06l-2.98-2.981Z" clip-rule="evenodd"/>
</svg>
