<svg xmlns="http://www.w3.org/2000/svg" width="24" height="24" fill="currentColor" viewBox="0 0 24 24">
  <path fill-rule="evenodd" d="M17.35 20.53a.75.75 0 0 1-1.06 0l-4-4a.75.75 0 1 1 1.06-1.06l2.72 2.72V4a.75.75 0 0 1 1.5 0v14.19l2.72-2.72a.75.75 0 1 1 1.06 1.06l-4 4Z" clip-rule="evenodd"/>
  <path d="M3.008 10.953a.843.843 0 0 1-.506-.143.65.65 0 0 1-.242-.385c-.029-.161.004-.341.1-.539l2.815-6.171c.118-.25.257-.429.418-.539A.929.929 0 0 1 6.154 3c.213 0 .4.059.561.176.162.11.297.29.407.539L9.96 9.886a.904.904 0 0 1 .1.55.56.56 0 0 1-.22.385.82.82 0 0 1-.485.132c-.249 0-.443-.059-.583-.176-.132-.117-.249-.3-.352-.55l-.66-1.529.682.473H3.855l.682-.473-.649 1.529c-.11.257-.227.444-.352.561-.117.11-.293.165-.528.165Zm3.124-6.039L4.724 8.269l-.297-.429H7.87l-.297.429-1.419-3.355h-.022ZM4.13 21c-.22 0-.4-.044-.539-.132a.72.72 0 0 1-.286-.374 1.07 1.07 0 0 1 0-.528c.051-.19.154-.382.308-.572l4.004-5.247v.517H3.998c-.242 0-.429-.063-.561-.187-.125-.125-.187-.3-.187-.528 0-.227.062-.4.187-.517.132-.125.319-.187.561-.187H8.42c.227 0 .407.048.539.143.14.088.235.209.286.363a.921.921 0 0 1 0 .528 1.57 1.57 0 0 1-.308.572l-4.004 5.236v-.506h3.795c.242 0 .425.062.55.187.132.117.198.29.198.517 0 .235-.066.414-.198.539-.125.117-.308.176-.55.176H4.13Z"/>
</svg>
