<svg xmlns="http://www.w3.org/2000/svg" width="24" height="24" fill="currentColor" viewBox="0 0 24 24">
  <path fill-rule="evenodd" d="M15 1.25a.75.75 0 0 1 .7.48l1.179 3.065c.295.77.401 1.03.553 1.243.146.205.325.384.53.53.213.152.474.258 1.243.553L22.269 8.3a.75.75 0 0 1 0 1.4l-3.064 1.179c-.77.295-1.03.402-1.243.553a2.252 2.252 0 0 0-.53.53c-.151.213-.258.474-.553 1.243L15.7 16.269a.75.75 0 0 1-1.4 0l-1.179-3.064c-.295-.77-.402-1.03-.553-1.243a2.252 2.252 0 0 0-.53-.53c-.213-.152-.474-.258-1.243-.553L7.731 9.7a.75.75 0 0 1 0-1.4l3.064-1.179c.77-.295 1.03-.401 1.243-.553a2.25 2.25 0 0 0 .53-.53c.152-.213.258-.474.553-1.243L14.3 1.731a.75.75 0 0 1 .7-.481Zm0 2.84-.479 1.244c-.01.029-.022.057-.033.085-.25.651-.423 1.102-.698 1.488a3.75 3.75 0 0 1-.883.883c-.386.275-.837.448-1.488.698l-.085.033L10.089 9l1.245.479c.029.01.057.022.085.033.651.25 1.101.423 1.488.698.342.243.64.541.883.883.275.386.448.837.699 1.488l.032.085.479 1.245.479-1.245c.01-.029.022-.057.033-.085.25-.651.423-1.101.698-1.488a3.75 3.75 0 0 1 .883-.883c.387-.275.837-.448 1.488-.698l.085-.033L19.911 9l-1.245-.479a73.632 73.632 0 0 0-.085-.033c-.651-.25-1.101-.423-1.488-.698a3.75 3.75 0 0 1-.883-.883c-.275-.386-.448-.837-.699-1.488l-.032-.085L15 4.089Zm-8.5 8.16a.75.75 0 0 1 .67.415l.785 1.569c.279.556.376.744.499.904.118.153.255.29.408.408.16.123.348.22.904.499l1.57.784a.75.75 0 0 1 0 1.342l-1.57.784c-.556.279-.744.376-.904.499-.153.118-.29.255-.408.408-.123.16-.22.348-.499.905l-.784 1.568a.75.75 0 0 1-1.342 0l-.784-1.569c-.279-.556-.376-.744-.499-.904a2.253 2.253 0 0 0-.408-.408c-.16-.123-.348-.22-.904-.499l-1.57-.784a.75.75 0 0 1 0-1.342l1.57-.784c.556-.279.744-.376.904-.499.153-.118.29-.255.408-.408.123-.16.22-.348.499-.905l.784-1.568a.75.75 0 0 1 .671-.415Zm0 2.427-.114.227-.03.062c-.236.472-.4.799-.622 1.087a3.75 3.75 0 0 1-.68.681c-.29.222-.616.386-1.088.622l-.062.03-.227.114.227.114.062.03c.472.236.799.4 1.087.622.256.197.484.426.681.68.222.29.386.616.622 1.088l.03.062.114.227.114-.227.03-.062c.236-.472.4-.799.622-1.087a3.75 3.75 0 0 1 .68-.681c.29-.222.616-.386 1.088-.622l.062-.03.227-.114-.227-.114-.062-.03c-.472-.236-.799-.4-1.087-.622a3.75 3.75 0 0 1-.681-.68c-.222-.29-.386-.616-.622-1.088l-.03-.062-.114-.227Z" clip-rule="evenodd"/>
</svg>
