<svg xmlns="http://www.w3.org/2000/svg" width="24" height="24" fill="currentColor" viewBox="0 0 24 24">
  <path fill-rule="evenodd" d="M8.768 1.25H14a.75.75 0 0 1 .53.22l6 6c.141.14.22.331.22.53v9.232c0 .813 0 1.469-.043 2-.045.546-.14 1.026-.366 1.47a3.75 3.75 0 0 1-1.639 1.64c-.444.226-.924.32-1.47.365-.531.043-1.187.043-2 .043H8.768c-.813 0-1.469 0-2-.043-.546-.045-1.026-.14-1.47-.366a3.75 3.75 0 0 1-1.64-1.639c-.226-.444-.32-.924-.365-1.47-.043-.531-.043-1.187-.043-2V6.768c0-.813 0-1.469.043-2 .045-.546.14-1.026.366-1.47a3.75 3.75 0 0 1 1.639-1.64c.444-.226.924-.32 1.47-.365.531-.043 1.187-.043 2-.043ZM6.89 2.788c-.454.037-.715.107-.912.207a2.25 2.25 0 0 0-.984.984c-.1.197-.17.458-.207.912-.037.462-.038 1.057-.038 1.909v10.4c0 .852 0 1.447.038 1.91.037.453.107.714.207.912.216.423.56.767.984.983.197.1.458.17.912.207.462.037 1.057.038 1.909.038h6.4c.852 0 1.447 0 1.91-.038.453-.038.714-.107.912-.207.423-.216.767-.56.983-.983.1-.198.17-.459.207-.913.037-.462.038-1.057.038-1.909V8.75h-3.676c-.258 0-.494 0-.692-.016a1.774 1.774 0 0 1-.676-.175 1.75 1.75 0 0 1-.765-.764 1.775 1.775 0 0 1-.175-.677c-.016-.198-.016-.434-.016-.692V2.75H8.8c-.852 0-1.447 0-1.91.038Zm7.859 1.023 3.44 3.44H15.6c-.292 0-.467-.002-.596-.012a.626.626 0 0 1-.12-.018.25.25 0 0 1-.105-.104.638.638 0 0 1-.018-.121 8.375 8.375 0 0 1-.011-.596V3.81Z" clip-rule="evenodd"/>
  <path d="M11.884 17.144c-.352 0-.716-.032-1.092-.096a3.633 3.633 0 0 1-1.008-.324.815.815 0 0 1-.348-.3.745.745 0 0 1-.084-.384.674.674 0 0 1 .12-.348.55.55 0 0 1 .3-.204.6.6 0 0 1 .42.036c.328.136.628.232.9.288.272.056.54.084.804.084.344 0 .592-.052.744-.156a.508.508 0 0 0 .24-.432c0-.16-.052-.28-.156-.36-.104-.08-.256-.136-.456-.168l-1.26-.228c-.496-.088-.88-.268-1.152-.54-.264-.28-.396-.636-.396-1.068 0-.4.112-.744.336-1.032a2.06 2.06 0 0 1 .924-.672c.4-.16.852-.24 1.356-.24.36 0 .692.032.996.096.304.064.596.168.876.312a.62.62 0 0 1 .3.288c.064.12.084.244.06.372a.705.705 0 0 1-.144.348.552.552 0 0 1-.312.204.668.668 0 0 1-.42-.048 3.457 3.457 0 0 0-.708-.252 2.484 2.484 0 0 0-.624-.084c-.36 0-.62.06-.78.18a.508.508 0 0 0-.24.432c0 .136.044.252.132.348.096.088.24.148.432.18l1.26.228c.52.088.916.264 1.188.528.272.256.408.608.408 1.056 0 .608-.24 1.088-.72 1.44-.472.344-1.104.516-1.896.516Z"/>
</svg>
