<svg xmlns="http://www.w3.org/2000/svg" width="24" height="24" fill="currentColor" viewBox="0 0 24 24">
  <path fill-rule="evenodd" d="M10.098 2.184a1.572 1.572 0 0 1 1.436-.934 3.216 3.216 0 0 1 3.216 3.216V8c0 .138.112.25.25.25h3.503a3.75 3.75 0 0 1 3.707 4.32l-1.077 7a3.75 3.75 0 0 1-3.707 3.18H4A2.75 2.75 0 0 1 1.25 20v-7A2.75 2.75 0 0 1 4 10.25h2.35a.25.25 0 0 0 .229-.149l3.519-7.917ZM7.75 21.25h9.676a2.25 2.25 0 0 0 2.224-1.908l1.077-7a2.25 2.25 0 0 0-2.224-2.592H15A1.75 1.75 0 0 1 13.25 8V4.466c0-.948-.768-1.716-1.716-1.716a.072.072 0 0 0-.066.043L7.95 10.71a1.749 1.749 0 0 1-.199.34v10.2Zm-1.5-9.5v9.5H4c-.69 0-1.25-.56-1.25-1.25v-7c0-.69.56-1.25 1.25-1.25h2.25Z" clip-rule="evenodd"/>
</svg>
