<svg xmlns="http://www.w3.org/2000/svg" width="24" height="24" fill="currentColor" viewBox="0 0 24 24">
  <path fill-rule="evenodd" d="M20.053 2.775c-.296-.024-.68-.025-1.253-.025h-1.05v9.5h1.05c.572 0 .957 0 1.253-.025.287-.023.424-.065.515-.111a1.25 1.25 0 0 0 .546-.546c.046-.091.088-.228.111-.515.024-.296.025-.68.025-1.253V5.2c0-.572 0-.957-.025-1.253-.023-.287-.065-.424-.111-.514a1.25 1.25 0 0 0-.546-.547c-.091-.046-.228-.088-.515-.111Zm-3.803 10.18V2.75H8.118c-.742 0-1.257 0-1.66.031-.396.03-.629.086-.813.17a2.25 2.25 0 0 0-.956.82c-.11.169-.2.39-.29.776-.092.395-.171.904-.284 1.637l-.523 3.4c-.148.966-.252 1.643-.287 2.172-.035.522.004.821.09 1.046.186.488.536.896.99 1.154.209.119.499.203 1.02.248.528.045 1.213.046 2.19.046h.831c.258 0 .494 0 .692.016.213.018.446.057.677.175.329.167.597.435.764.764.118.23.158.464.175.677.016.198.016.434.016.692v2.96c0 .948.768 1.716 1.716 1.716a.072.072 0 0 0 .066-.043l3.36-7.561.03-.07c.093-.209.19-.429.328-.621ZM18.83 1.25c.535 0 .98 0 1.345.03.38.03.736.098 1.074.27a2.75 2.75 0 0 1 1.201 1.202c.172.337.24.693.27 1.073.03.365.03.81.03 1.345v4.66c0 .535 0 .98-.03 1.345-.03.38-.098.736-.27 1.073a2.751 2.751 0 0 1-1.201 1.202c-.338.172-.694.24-1.074.27-.364.03-.81.03-1.345.03h-.79c-.198 0-.31 0-.396.006a.498.498 0 0 0-.08.01.25.25 0 0 0-.094.06.504.504 0 0 0-.04.07 5.91 5.91 0 0 0-.167.359l-3.36 7.562a1.572 1.572 0 0 1-1.437.933 3.216 3.216 0 0 1-3.216-3.216V16.6c0-.292 0-.467-.011-.596a.625.625 0 0 0-.018-.12.25.25 0 0 0-.104-.105.638.638 0 0 0-.121-.018 8.374 8.374 0 0 0-.596-.011h-.84c-.934 0-1.684 0-2.284-.052-.615-.053-1.152-.165-1.633-.438a3.75 3.75 0 0 1-1.65-1.924c-.197-.516-.226-1.064-.185-1.68.04-.601.154-1.342.296-2.266l.533-3.463c.107-.698.194-1.263.3-1.72.11-.472.252-.882.496-1.256a3.75 3.75 0 0 1 1.593-1.367c.407-.184.834-.262 1.317-.298.468-.036 1.04-.036 1.746-.036H18.83ZM9.12 15.78h-.002.001Zm.1.1v.002-.001Zm8.251-2.055-.001.002.001-.002Zm.092-.06h.002-.002Z" clip-rule="evenodd"/>
</svg>
