<svg xmlns="http://www.w3.org/2000/svg" width="24" height="24" fill="currentColor" viewBox="0 0 24 24">
  <path fill-rule="evenodd" d="M2.47 1.47a.75.75 0 0 1 .767-.181l3 1A.75.75 0 0 1 6.75 3v2.69l3.73 3.73a.498.498 0 0 0 .006-.036c0-.006-.003-.043-.017-.131-.02-.123-.052-.289-.1-.538a6.25 6.25 0 0 1 9.268-6.623.75.75 0 0 1 .152 1.18l-2.627 2.627c-.207.207-.33.33-.414.43a.635.635 0 0 0-.073.097.25.25 0 0 0 0 .148.635.635 0 0 0 .073.098c.084.099.207.222.414.43l.237.236c.207.207.33.33.43.414.06.05.089.068.097.073a.25.25 0 0 0 .148 0 .626.626 0 0 0 .098-.073c.099-.084.222-.207.43-.414l2.457-2.458a.75.75 0 0 1 1.224.246 6.252 6.252 0 0 1-4.587 8.51l3.334 3.334a2.871 2.871 0 1 1-4.06 4.06L12 16.06l-4.97 4.97a2.871 2.871 0 1 1-4.06-4.06l6.47-6.47-3.75-3.75H3a.75.75 0 0 1-.711-.513l-1-3a.75.75 0 0 1 .18-.767l1-1Zm2.78 3.78V3.54l-2.047-.682-.345.345.683 2.047H5.25Zm5.781 5.78-.002.001-6.999 7a1.371 1.371 0 0 0 1.94 1.939l7.157-7.157.055-.056.112-.111.115-.116a1.743 1.743 0 0 1 .418-.311c.09-.049.193-.098.315-.135a1.716 1.716 0 0 1 .39-.068c.241-.02.483.004.707.065a4.183 4.183 0 0 0 .807.148 4.75 4.75 0 0 0 5.16-5.375l-1.563 1.564c-.182.182-.35.349-.5.477a1.774 1.774 0 0 1-.602.355 1.75 1.75 0 0 1-1.082 0 1.774 1.774 0 0 1-.602-.355 9.335 9.335 0 0 1-.5-.477l-.274-.275a9.06 9.06 0 0 1-.478-.5 1.774 1.774 0 0 1-.355-.602 1.75 1.75 0 0 1 0-1.082c.08-.246.216-.439.355-.602.128-.15.295-.318.477-.5l1.879-1.878a4.75 4.75 0 0 0-6.12 5.447l.002.014c.045.23.084.424.108.578a1.722 1.722 0 0 1-.035.84 1.717 1.717 0 0 1-.135.315c-.125.233-.334.442-.538.645l-.056.055-.156.157Zm2.03 3.97 4.97 4.97a1.371 1.371 0 0 0 1.939-1.94l-4.34-4.34a6.198 6.198 0 0 1-.345-.058c-.25-.05-.415-.082-.538-.101a1.598 1.598 0 0 0-.121-.016.336.336 0 0 0-.104.037l-.05.043a9.182 9.182 0 0 0-.285.278L13.061 15Zm5.01-7.174.003-.001h-.003Z" clip-rule="evenodd"/>
</svg>
