<svg xmlns="http://www.w3.org/2000/svg" width="24" height="24" fill="currentColor" viewBox="0 0 24 24">
  <path fill-rule="evenodd" d="M9.5 3.75a6.75 6.75 0 0 0-4.782 11.514.75.75 0 1 1-1.062 1.059A8.25 8.25 0 1 1 16.573 6.25a6.25 6.25 0 0 1 3.905 11.07.75.75 0 1 1-.956-1.156A4.75 4.75 0 0 0 16.5 7.75a1.37 1.37 0 0 1-1.18-.671A6.747 6.747 0 0 0 9.5 3.75Zm1.97 8.72a.75.75 0 0 1 1.06 0l4 4a.75.75 0 1 1-1.06 1.06l-2.72-2.72V22a.75.75 0 0 1-1.5 0v-7.19l-2.72 2.72a.75.75 0 0 1-1.06-1.06l4-4Z" clip-rule="evenodd"/>
</svg>
