<svg xmlns="http://www.w3.org/2000/svg" width="24" height="24" fill="currentColor" viewBox="0 0 24 24">
  <path fill-rule="evenodd" d="M12 2.75a9.25 9.25 0 0 0-6.85 15.467A4.743 4.743 0 0 1 9 16.25h6c1.585 0 2.987.776 3.85 1.967A9.25 9.25 0 0 0 12 2.75Zm7.198 17.234A10.723 10.723 0 0 0 22.75 12c0-5.937-4.813-10.75-10.75-10.75S1.25 6.063 1.25 12a10.723 10.723 0 0 0 3.578 8.008A10.71 10.71 0 0 0 12 22.75a10.71 10.71 0 0 0 7.198-2.766Zm-1.457-.73A3.248 3.248 0 0 0 15 17.75H9a3.248 3.248 0 0 0-2.741 1.503A9.21 9.21 0 0 0 12 21.25a9.21 9.21 0 0 0 5.741-1.997ZM12 6.25a3.25 3.25 0 1 0 0 6.5 3.25 3.25 0 0 0 0-6.5ZM7.25 9.5a4.75 4.75 0 1 1 9.5 0 4.75 4.75 0 0 1-9.5 0Z" clip-rule="evenodd"/>
</svg>
