<svg xmlns="http://www.w3.org/2000/svg" width="24" height="24" fill="currentColor" viewBox="0 0 24 24">
  <path fill-rule="evenodd" d="M8.768 1.25h6.464c.813 0 1.469 0 2 .043.546.045 1.026.14 1.47.366a3.75 3.75 0 0 1 1.64 1.639c.226.444.32.924.365 1.47.043.531.043 1.187.043 2V9.5a.75.75 0 0 1-1.5 0V6.8c0-.852 0-1.447-.038-1.91-.038-.453-.107-.714-.207-.911a2.25 2.25 0 0 0-.983-.984c-.198-.1-.459-.17-.913-.207-.462-.037-1.057-.038-1.909-.038H8.8c-.852 0-1.447 0-1.91.038-.453.037-.714.107-.911.207a2.25 2.25 0 0 0-.984.984c-.1.197-.17.458-.207.912-.037.462-.038 1.057-.038 1.909v10.4c0 .852 0 1.447.038 1.91.037.453.107.714.207.912.216.423.56.767.984.983.197.1.458.17.912.207.462.037 1.057.038 1.909.038H9a.75.75 0 0 1 0 1.5h-.232c-.813 0-1.469 0-2-.043-.546-.045-1.026-.14-1.47-.366a3.75 3.75 0 0 1-1.64-1.639c-.226-.444-.32-.924-.365-1.47-.043-.531-.043-1.187-.043-2V6.768c0-.813 0-1.469.043-2 .045-.546.14-1.026.366-1.47a3.75 3.75 0 0 1 1.639-1.64c.444-.226.924-.32 1.47-.365.531-.043 1.187-.043 2-.043Zm3.697 13.235c-.821.7-1.399 1.528-1.691 2.002l-.009.013.009.014c.292.473.87 1.3 1.69 2.001.82.7 1.835 1.235 3.024 1.235s2.203-.535 3.023-1.235c.821-.7 1.399-1.528 1.691-2.002l.009-.013-.009-.014c-.292-.473-.87-1.3-1.69-2.001-.82-.7-1.835-1.235-3.024-1.235s-2.203.535-3.023 1.235Zm-.974-1.141c.986-.842 2.334-1.594 3.997-1.594 1.663 0 3.01.752 3.997 1.594.985.84 1.658 1.81 1.994 2.354l.014.023c.066.106.165.266.215.487.04.18.04.404 0 .584-.05.221-.15.381-.215.487l-.014.023c-.336.544-1.01 1.513-1.994 2.354-.986.842-2.334 1.594-3.997 1.594-1.663 0-3.01-.752-3.997-1.594-.985-.84-1.658-1.81-1.994-2.354l-.014-.023a1.528 1.528 0 0 1-.215-.487c-.04-.18-.04-.404 0-.584.05-.221.15-.381.215-.487l.014-.023c.336-.544 1.01-1.513 1.994-2.354Zm3.997 2.192c-.496 0-.926.415-.926.964 0 .549.43.964.926.964.496 0 .926-.415.926-.964 0-.549-.43-.964-.926-.964Zm-2.426.964c0-1.345 1.07-2.464 2.426-2.464s2.426 1.119 2.426 2.464-1.07 2.464-2.426 2.464-2.426-1.119-2.426-2.464Z" clip-rule="evenodd"/>
</svg>
