<svg xmlns="http://www.w3.org/2000/svg" width="24" height="24" fill="currentColor" viewBox="0 0 24 24">
  <path fill-rule="evenodd" d="M7.768 3.25h8.464a123.598 123.598 0 0 1 .824.002 17.1 17.1 0 0 1 1.175.041c.547.045 1.027.14 1.471.366a3.75 3.75 0 0 1 1.64 1.639c.226.444.32.924.365 1.47.043.531.043 1.187.043 2v6.464c0 .813 0 1.469-.043 2-.045.546-.14 1.026-.366 1.47a3.75 3.75 0 0 1-1.639 1.64c-.444.226-.924.32-1.47.365a16.433 16.433 0 0 1-1.277.042l-.723.001H7.768l-.723-.001a.758.758 0 0 1-.101-.001 16.431 16.431 0 0 1-1.175-.041c-.547-.045-1.027-.14-1.471-.366a3.75 3.75 0 0 1-1.64-1.639c-.226-.444-.32-.924-.365-1.47-.043-.531-.043-1.187-.043-2V8.768c0-.813 0-1.469.043-2 .045-.546.14-1.026.366-1.47a3.75 3.75 0 0 1 1.639-1.64c.444-.226.924-.32 1.47-.365a16.49 16.49 0 0 1 1.277-.042l.723-.001ZM6.25 4.767a8.957 8.957 0 0 0-.36.021c-.453.037-.714.107-.911.207a2.25 2.25 0 0 0-.984.984c-.1.197-.17.458-.207.912-.037.462-.038 1.057-.038 1.909v6.4c0 .852 0 1.447.038 1.91.037.453.107.714.207.912.216.423.56.767.984.983.197.1.458.17.912.207.111.009.23.016.359.021V4.767Zm1.5 14.483V4.75h8.5v14.5h-8.5Zm10-.017c.129-.005.248-.012.36-.021.453-.038.714-.107.912-.207.423-.216.767-.56.983-.983.1-.198.17-.459.207-.913.037-.462.038-1.057.038-1.909V8.8c0-.852 0-1.447-.038-1.91-.038-.453-.107-.714-.207-.911a2.25 2.25 0 0 0-.983-.984c-.198-.1-.459-.17-.913-.207a8.953 8.953 0 0 0-.359-.021v14.466Z" clip-rule="evenodd"/>
</svg>
